<?xml version="1.0" standalone="no"?>
<!DOCTYPE svg PUBLIC "-//W3C//DTD SVG 20010904//EN"
 "http://www.w3.org/TR/2001/REC-SVG-20010904/DTD/svg10.dtd">
<svg version="1.0" xmlns="http://www.w3.org/2000/svg"
 width="1280.000000pt" height="640.000000pt" viewBox="0 0 1280.000000 640.000000"
 preserveAspectRatio="xMidYMid meet">
<metadata>
Created by potrace 1.15, written by Peter Selinger 2001-2017
</metadata>
<g transform="translate(0.000000,640.000000) scale(0.100000,-0.100000)"
fill="#000000" stroke="none">
<path d="M9095 6186 c-63 -33 -251 -81 -570 -146 -590 -121 -786 -194 -995
-370 -30 -25 -75 -61 -100 -78 -93 -67 -390 -356 -390 -380 0 -5 -19 -30 -42
-54 -76 -81 -98 -107 -98 -116 0 -5 -11 -19 -25 -32 -14 -13 -25 -29 -25 -35
0 -6 -14 -24 -31 -41 -17 -16 -40 -45 -50 -64 -11 -19 -36 -57 -56 -85 -36
-48 -37 -54 -38 -130 l0 -80 -38 -20 c-61 -33 -60 -73 2 -104 22 -12 48 -17
69 -14 18 3 39 0 46 -7 11 -8 20 -8 35 -1 29 16 68 13 91 -6 11 -10 30 -26 41
-37 18 -16 31 -17 93 -12 39 4 98 14 131 23 42 10 81 13 130 9 39 -4 124 -11
190 -16 66 -5 142 -12 169 -16 31 -4 56 -2 72 6 16 9 43 11 91 5 37 -4 118 -8
178 -10 73 -1 123 -7 147 -18 35 -15 39 -14 63 4 14 11 25 25 25 30 0 5 5 15
11 22 6 7 23 35 37 62 31 57 51 63 65 20 6 -16 26 -49 45 -72 40 -50 91 -68
161 -58 25 4 57 9 71 10 14 2 54 11 90 19 92 21 292 45 446 53 l131 6 8 -79
c5 -43 9 -135 11 -204 8 -398 18 -660 26 -660 12 0 13 -804 2 -882 -5 -35 -8
-37 -32 -31 -39 10 -58 7 -81 -14 -31 -26 -26 -48 20 -85 105 -85 102 -81 88
-126 -12 -41 -7 -78 10 -68 23 15 34 132 28 306 -3 98 -3 187 0 199 4 15 13
21 35 21 l29 0 -6 203 c-2 111 -7 238 -9 282 -2 44 -7 252 -11 463 -5 211 -12
385 -17 388 -4 3 -8 71 -8 152 l0 148 138 11 c82 7 235 9 383 6 136 -3 253 -2
261 3 18 10 88 100 88 113 0 17 39 42 62 39 16 -2 22 -9 21 -24 -2 -14 15 -36
52 -68 l55 -47 147 30 c185 38 359 58 632 73 189 11 215 10 225 -3 11 -16 123
-32 229 -33 41 -1 51 3 72 29 13 17 24 33 25 36 0 13 -148 19 -472 19 -185 0
-339 4 -342 9 -10 16 233 23 533 16 211 -5 304 -4 325 4 16 6 38 8 50 4 19 -6
18 -7 -9 -13 -22 -4 -31 -12 -33 -29 -4 -22 -1 -24 33 -18 44 7 65 23 65 48 0
21 20 32 86 49 53 13 75 44 67 95 -5 30 -2 41 12 51 15 11 17 22 11 61 -10 78
-42 127 -133 211 -47 42 -159 147 -250 232 -90 85 -178 163 -196 172 -17 10
-35 24 -39 33 -5 8 -16 15 -24 15 -8 0 -51 28 -97 63 -153 117 -356 226 -521
282 -156 52 -450 109 -866 165 -129 18 -336 48 -460 67 -314 49 -334 50 -395
19z m1651 -1536 c21 0 46 -4 54 -10 11 -7 9 -11 -13 -19 -41 -16 -101 6 -105
39 -2 23 -1 24 11 8 9 -12 28 -18 53 -18z m-580 11 c5 -5 23 -11 39 -14 17 -2
-10 -4 -60 -4 -49 0 -75 2 -57 4 17 2 32 8 32 14 0 12 33 12 46 0z m-246 -20
c-15 -9 -87 -14 -440 -31 -113 -6 -263 -15 -333 -20 -123 -10 -208 -6 -190 10
4 4 197 15 428 25 231 10 422 19 424 21 2 2 32 4 65 4 38 0 55 -4 46 -9z
m-1110 -76 c16 -20 0 -25 -67 -22 -51 2 -77 17 -30 17 12 0 29 5 37 10 22 14
46 12 60 -5z"/>
<path d="M11996 4705 c-32 -11 -58 -24 -57 -30 0 -5 26 -11 56 -13 58 -3 70 6
63 45 -3 18 -5 18 -62 -2z"/>
<path d="M8990 3500 c-33 -18 -60 -19 -594 -20 l-558 0 6 -26 c9 -33 -3 -96
-16 -88 -6 4 -7 23 -4 45 6 36 4 40 -20 49 -14 6 -40 10 -58 10 -20 0 -40 8
-51 20 -20 22 -50 26 -61 8 -4 -7 -7 -30 -6 -53 2 -27 -1 -36 -7 -26 -6 10
-11 -3 -14 -40 -5 -52 -21 -183 -51 -415 -7 -61 -21 -126 -29 -145 -21 -45
-39 -172 -41 -284 -1 -91 -10 -135 -27 -135 -5 0 -8 -18 -7 -40 1 -22 -1 -43
-4 -46 -4 -3 -40 20 -82 50 -41 31 -81 56 -87 56 -7 0 -34 18 -60 40 -26 22
-51 40 -54 40 -4 0 -20 11 -37 25 -26 22 -39 25 -104 25 -72 0 -74 -1 -74 -25
0 -17 12 -32 44 -54 54 -38 82 -72 91 -113 4 -18 15 -32 27 -36 13 -3 17 -10
12 -21 -14 -32 -16 -61 -6 -74 16 -19 37 -230 23 -235 -6 -2 -11 -12 -11 -23
0 -21 -31 -43 -75 -54 -16 -3 -38 -14 -48 -22 -10 -10 -39 -17 -75 -19 -153
-6 -200 -41 -175 -133 5 -21 10 -23 48 -19 32 4 44 1 52 -12 6 -9 13 -70 14
-136 4 -118 4 -119 -21 -130 -17 -8 -63 -9 -145 -4 -131 8 -139 7 -172 -23
-19 -17 -31 -19 -77 -14 -37 4 -62 1 -82 -9 -15 -8 -46 -14 -68 -13 -23 1 -53
-2 -68 -6 -17 -4 -28 -3 -28 3 0 32 -139 31 -255 -1 -53 -15 -219 -12 -194 4
8 4 10 11 6 15 -4 4 -16 -1 -26 -10 -19 -18 -40 -17 -126 2 -25 5 -107 5 -213
-1 -67 -3 -87 -8 -106 -26 -26 -25 -34 -26 -55 -7 -20 18 -127 24 -143 8 -15
-15 -45 -16 -53 -2 -8 13 -62 13 -70 0 -11 -19 -35 -10 -45 16 -9 22 -14 25
-38 19 -15 -3 -34 -15 -43 -27 -15 -19 -17 -19 -47 -4 -39 20 -66 20 -82 1
-12 -14 -15 -14 -30 0 -9 8 -20 12 -23 9 -4 -4 -13 -2 -21 5 -10 9 -20 9 -41
-1 -23 -10 -29 -10 -39 3 -8 12 -19 14 -41 7 -16 -4 -57 -3 -90 2 -33 5 -76
10 -95 10 -33 -1 -34 -2 -16 -15 19 -14 19 -15 0 -20 -10 -4 -26 -10 -35 -15
-11 -6 -18 -1 -26 20 -10 27 -11 27 -81 22 -58 -4 -73 -2 -77 10 -5 13 -14 14
-68 1 -123 -27 -127 -27 -127 -9 0 15 -6 16 -32 10 -18 -4 -49 -8 -68 -9 -19
0 -41 -5 -49 -9 -16 -10 -397 -27 -576 -25 -66 0 -174 -4 -240 -11 -142 -13
-1885 -3 -1885 11 0 5 -49 9 -110 9 -94 0 -110 -2 -110 -16 0 -14 -17 -15
-164 -9 -89 4 -173 4 -185 0 -59 -18 12 -25 274 -25 257 0 335 -7 272 -24 -31
-8 -173 -7 -302 4 -60 5 -251 6 -423 3 l-312 -6 0 -314 0 -313 350 0 c193 0
350 2 350 5 0 3 -15 11 -32 18 l-33 14 30 6 c17 3 74 9 128 12 54 4 97 8 95
10 -2 1 -87 8 -191 15 -279 18 -278 28 6 29 212 1 247 3 247 16 0 13 43 15
328 12 356 -2 398 3 429 49 15 24 15 26 -4 45 -25 25 -73 37 -191 45 -71 5
-92 10 -92 22 0 12 19 13 131 7 137 -8 194 -18 293 -54 91 -34 236 -41 236
-12 0 5 -33 17 -72 26 -40 10 -84 24 -98 32 -22 12 26 13 373 9 343 -5 1055
-28 1199 -39 45 -4 47 -3 42 18 -7 27 19 40 121 58 74 14 71 22 -15 33 -27 4
-50 10 -50 14 0 15 248 50 358 50 96 0 112 -2 112 -16 0 -12 -7 -15 -27 -11
-15 3 -53 -5 -88 -18 -34 -13 -91 -27 -126 -31 l-64 -8 65 -13 c52 -11 80 -12
137 -3 50 8 78 8 90 1 16 -9 16 -10 -4 -11 -28 0 -29 -8 -5 -26 16 -13 15 -14
-6 -20 -18 -5 -20 -9 -10 -15 9 -6 6 -9 -10 -9 -13 0 -20 4 -17 10 9 14 -7 12
-46 -4 -19 -8 -63 -14 -97 -15 -34 0 -68 -3 -75 -8 -6 -4 -129 -10 -272 -14
-143 -3 -268 -9 -277 -13 -10 -5 -18 -17 -18 -28 0 -17 -5 -19 -37 -14 -65 10
-299 26 -505 35 -108 5 -201 12 -206 15 -6 3 -13 20 -17 36 -4 16 -10 32 -13
34 -4 2 -67 -10 -141 -28 l-133 -33 78 -6 c42 -4 110 -7 149 -7 58 0 74 -3 79
-16 9 -23 6 -24 -44 -13 -79 19 -205 -6 -252 -48 -15 -14 -35 -15 -131 -9
-122 7 -386 -9 -401 -25 -9 -8 55 -14 112 -9 40 3 23 -17 -20 -24 -102 -16
-180 -38 -167 -47 8 -5 30 -10 49 -11 51 -3 -527 -16 -1102 -23 l-498 -7 0
-83 0 -83 58 -5 c31 -2 241 0 467 6 l410 10 50 -23 c48 -22 62 -24 314 -28
183 -3 266 -1 274 7 12 12 144 15 172 5 19 -8 -74 -44 -112 -44 -12 0 -25 -5
-29 -11 -4 -8 11 -9 52 -3 91 11 547 11 564 -1 12 -8 7 -11 -20 -16 -88 -14
198 -20 778 -17 342 2 622 2 622 1 0 0 -21 -11 -46 -24 l-47 -22 -496 6 c-273
4 -563 9 -646 12 -147 4 -149 4 -80 -9 190 -36 251 -46 294 -47 25 0 55 -5 66
-10 13 -6 -12 -8 -78 -5 -71 3 -117 0 -173 -14 -78 -18 -103 -30 -65 -30 12 0
19 -4 16 -10 -9 -14 -118 -12 -203 4 -73 14 -103 26 -66 26 18 1 18 1 1 14
-15 12 -14 14 20 20 21 3 52 7 68 8 17 1 -103 5 -265 9 -357 8 -441 23 -175
31 169 4 242 16 201 31 -56 22 -518 15 -726 -10 -49 -6 -52 -8 -25 -14 17 -4
52 -7 79 -8 29 0 46 -5 40 -10 -33 -30 -373 -51 -529 -33 -64 8 -103 8 -135 0
-25 -5 -126 -13 -225 -17 -174 -6 -179 -7 -135 -20 25 -8 63 -13 85 -12 96 6
345 4 351 -2 16 -16 -14 -19 -213 -24 -114 -3 -217 -9 -228 -14 -29 -11 3130
-10 3245 1 58 6 1429 10 3552 10 l3457 0 3 22 c3 20 13 24 87 35 93 15 115 8
93 -27 -6 -11 -12 -22 -12 -25 0 -3 474 -4 1053 -3 l1052 3 0 90 0 90 -65 21
c-59 20 -67 20 -83 6 -15 -14 -22 -14 -55 -2 -20 7 -59 15 -86 16 -32 1 -54 8
-62 18 -7 10 -26 16 -48 16 -63 0 -39 17 34 24 74 8 96 26 31 26 -23 0 -41 5
-43 12 -3 8 -9 4 -17 -10 -6 -12 -16 -22 -22 -22 -6 0 -7 5 -2 13 4 6 8 22 8
35 1 20 -4 22 -45 21 -25 -1 -72 -4 -105 -8 -51 -6 -56 -8 -30 -13 17 -4 54
-10 83 -13 29 -4 50 -10 47 -13 -6 -7 -170 -24 -210 -22 -11 0 -44 0 -74 0
-29 0 -80 7 -112 15 -32 8 -82 17 -111 19 -90 7 -102 20 -23 26 l70 5 -39 18
c-22 9 -36 20 -33 23 4 4 60 10 126 14 123 8 191 25 191 47 0 17 -10 16 -32
-4 -17 -15 -18 -15 -18 15 0 29 3 31 47 38 27 4 105 0 188 -10 136 -16 199
-14 211 6 3 5 -2 15 -12 22 -29 22 2 30 121 34 139 4 149 7 107 34 -17 11 -32
21 -32 23 0 2 23 11 50 20 29 10 50 23 50 31 0 17 2 17 -80 3 -36 -6 -85 -7
-110 -3 l-45 7 39 12 c22 6 41 16 43 22 8 23 -144 32 -194 11 l-28 -11 38 -7
c20 -4 40 -10 44 -13 13 -13 -42 -7 -85 10 -34 13 -45 13 -55 4 -9 -10 -8 -16
8 -27 19 -15 19 -15 -5 -12 -14 2 -29 13 -35 26 -11 24 -42 28 -107 13 -28 -7
-35 -6 -31 5 5 13 -56 13 -355 0 -92 -4 -93 -4 -86 17 11 34 24 39 104 32 314
-24 366 -20 441 31 48 32 56 34 135 34 81 0 84 1 84 23 0 31 9 38 32 26 14 -8
25 -6 43 5 22 14 27 14 67 -4 24 -11 64 -20 91 -20 l47 0 0 274 0 273 -61 6
c-34 3 -75 1 -91 -5 -20 -7 -95 -9 -210 -5 -128 4 -195 1 -236 -8 -41 -9 -125
-12 -297 -10 -147 3 -253 0 -273 -7 -24 -7 -37 -7 -47 2 -10 8 -67 9 -231 0
-119 -6 -221 -7 -225 -3 -4 4 -22 44 -40 88 -30 71 -33 90 -33 170 1 61 10
128 29 210 15 66 30 131 32 145 11 69 26 100 49 100 19 0 34 17 34 40 0 4 -9
10 -20 13 -18 4 -20 11 -15 49 2 23 9 66 15 93 6 28 13 64 15 80 3 17 10 50
16 75 6 25 14 74 18 110 5 36 19 103 31 150 12 47 24 104 25 127 2 23 9 51 15
63 6 11 8 30 5 41 -4 11 -2 25 3 32 5 7 17 59 27 116 9 57 20 113 24 124 10
26 -9 67 -31 67 -9 0 -28 -10 -42 -23 -23 -22 -37 -24 -263 -35 -575 -30 -950
-52 -970 -58 -17 -5 -25 -1 -30 12 -15 41 -63 49 -55 9 3 -16 0 -25 -8 -25 -9
0 -11 -15 -7 -55 3 -30 2 -53 -2 -50 -10 5 -31 -62 -31 -101 -1 -16 -7 -46
-15 -68 -12 -34 -11 -43 2 -72 15 -31 15 -37 -5 -97 -12 -35 -22 -83 -22 -106
0 -34 -4 -44 -20 -48 -28 -7 -25 -19 8 -31 72 -27 70 -25 37 -32 -16 -3 -38
-1 -47 4 -9 6 -20 8 -23 4 -3 -3 -15 -59 -25 -124 -11 -66 -27 -142 -35 -171
-20 -69 -19 -84 10 -127 31 -46 32 -56 3 -29 -13 11 -52 36 -88 57 -36 20
-103 63 -150 96 -47 32 -88 59 -92 60 -11 0 -19 -35 -12 -53 3 -8 50 -34 104
-57 99 -42 122 -58 134 -95 3 -11 21 -27 39 -36 20 -10 33 -25 35 -39 3 -20 2
-22 -11 -12 -13 11 -14 6 -9 -34 3 -31 1 -45 -6 -41 -6 5 -13 -18 -17 -63 -4
-39 -8 -70 -9 -71 0 0 -41 -4 -89 -7 l-88 -7 -5 25 c-2 14 -9 39 -15 55 -6 17
-13 39 -16 50 -2 11 -9 30 -15 42 -6 12 -8 31 -5 43 3 13 0 23 -9 27 -12 4
-14 17 -9 58 7 54 0 95 -15 95 -5 0 -12 -25 -15 -55 -7 -55 -7 -55 -42 -55
-34 0 -34 0 -26 -32 4 -18 6 -76 5 -130 -2 -53 1 -105 6 -115 7 -13 6 -24 -4
-38 -8 -10 -14 -27 -14 -37 0 -10 -4 -18 -10 -18 -15 0 -12 31 5 50 13 15 12
19 -10 40 -24 23 -28 23 -78 11 -28 -7 -76 -21 -105 -32 -29 -10 -67 -19 -85
-19 -31 0 -100 -20 -113 -33 -3 -3 -19 -4 -34 -1 -24 5 -30 1 -49 -40 -36 -74
-25 -89 52 -70 21 5 27 3 27 -10 0 -9 8 -16 18 -16 13 0 17 -9 18 -43 1 -23 0
-32 -3 -19 -6 29 -27 23 -30 -9 -2 -13 -8 -61 -14 -107 -11 -82 -12 -83 -38
-80 -24 3 -28 10 -49 93 -34 134 -40 180 -30 238 5 28 11 70 13 92 2 22 9 78
15 125 6 47 13 103 16 125 10 80 13 88 36 81 12 -3 28 0 35 6 15 12 18 48 4
48 -19 0 -41 32 -41 60 0 16 7 55 15 87 8 31 15 77 15 101 0 24 4 51 9 60 4 9
11 50 15 91 6 70 5 73 -14 68 -11 -3 -20 -1 -20 4 0 5 6 9 14 9 26 0 29 9 51
165 20 136 49 315 66 406 33 170 20 204 -61 159z m-66 -95 c39 0 51 -4 63 -22
26 -40 11 -53 -60 -53 l-65 0 -11 -46 c-13 -50 -9 -63 12 -45 33 27 118 6 111
-28 -2 -9 -15 -94 -30 -189 -26 -169 -27 -174 -58 -197 -43 -33 -218 -55 -488
-62 -204 -6 -264 -1 -253 17 4 6 109 10 266 10 327 0 319 -3 342 106 9 44 28
150 42 237 25 156 51 287 62 317 4 10 8 5 12 -15 6 -28 9 -30 55 -30z m-1130
-30 c12 -33 -4 -45 -60 -45 -50 0 -54 2 -54 23 0 33 7 37 61 37 32 0 49 -5 53
-15z m3432 -35 c33 0 35 -2 32 -27 -3 -24 -9 -29 -45 -37 -36 -7 -44 -14 -53
-42 -6 -19 -9 -38 -6 -43 4 -5 2 -12 -4 -16 -13 -8 -13 60 1 125 8 39 15 50
26 46 8 -3 30 -6 49 -6z m-1059 -108 c-9 -37 -17 -75 -17 -84 0 -10 -7 -18
-16 -18 -10 0 -14 6 -11 18 3 9 13 52 22 96 12 58 20 75 28 67 8 -8 7 -29 -6
-79z m-47 18 c0 -30 -1 -30 -55 -30 -57 0 -64 6 -43 40 10 15 24 20 55 20 41
0 43 -1 43 -30z m-2330 -99 c0 -44 -4 -82 -9 -86 -5 -3 -7 -21 -4 -40 4 -28 2
-35 -11 -35 -11 0 -16 -9 -16 -32 0 -18 -6 -56 -12 -86 -14 -59 -33 -71 -82
-52 -23 9 -27 8 -23 -4 7 -19 -33 -80 -56 -84 -24 -5 -23 45 2 66 24 20 57
173 66 307 9 131 5 125 81 125 l64 0 0 -79z m2303 -71 c-1 -25 -2 -70 -2 -100
-2 -56 -26 -155 -44 -178 -14 -17 14 -37 77 -57 64 -19 229 -19 406 0 206 23
354 30 376 17 15 -9 4 -11 -56 -12 -41 0 -142 -7 -225 -15 -169 -16 -435 -19
-510 -4 -27 5 -81 12 -118 16 l-69 6 5 36 c3 20 10 54 15 76 6 22 19 85 28
140 9 55 22 106 27 113 6 8 26 12 51 10 l41 -3 -2 -45z m1069 -70 c25 0 38 -5
38 -14 0 -7 3 -35 7 -61 5 -38 3 -46 -7 -40 -10 6 -12 -1 -7 -33 3 -24 1 -40
-4 -36 -5 3 -9 13 -10 22 -1 10 -4 8 -8 -7 -7 -27 -55 -49 -110 -50 -37 -1
-37 -2 -13 94 6 22 15 66 22 98 11 56 12 57 33 42 12 -8 38 -15 59 -15z m-105
-697 c-11 -78 -30 -158 -38 -167 -5 -6 -9 -24 -9 -40 0 -17 -8 -58 -18 -91
l-18 -59 -17 42 c-9 23 -17 49 -17 57 0 18 -17 20 -23 3 -3 -9 -7 -7 -12 5 -7
18 5 97 25 160 5 16 6 35 4 42 -8 20 14 55 34 55 10 0 27 7 38 15 10 8 27 15
38 15 15 0 17 -6 13 -37z m-3307 -8 c96 -9 176 -18 179 -20 13 -14 -17 -15
-115 -7 -129 11 -138 7 -131 -55 2 -24 1 -46 -4 -49 -5 -3 -9 2 -9 10 0 9 -4
16 -10 16 -6 0 -10 -32 -10 -76 0 -86 -13 -149 -38 -182 -14 -17 -31 -24 -72
-29 l-55 -5 -3 52 c-2 28 2 58 8 65 14 17 19 218 5 225 -5 3 -11 -10 -13 -27
-2 -20 -11 -37 -23 -43 -15 -8 -19 -21 -19 -60 0 -27 -4 -51 -9 -54 -4 -3 -11
-34 -13 -70 -3 -35 -9 -69 -12 -75 -4 -6 -29 -11 -56 -11 -27 0 -52 -4 -55
-10 -14 -23 -25 -7 -25 34 0 25 -5 57 -11 73 -33 80 -37 168 -14 279 4 20 8
21 37 10 18 -6 47 -21 63 -32 17 -12 41 -24 55 -28 l25 -7 -24 19 -24 19 49 7
c27 4 62 9 79 10 16 2 34 10 39 19 13 20 -7 20 206 2z m1062 -15 c3 -19 0 -30
-7 -30 -7 0 -15 -23 -18 -57 -24 -219 -39 -267 -57 -180 -6 31 -16 59 -21 62
-5 4 -9 16 -9 28 0 16 -3 18 -12 9 -9 -9 -9 -23 0 -63 14 -61 15 -99 3 -99 -5
0 -12 10 -14 23 -3 15 -5 12 -6 -11 0 -19 8 -64 20 -102 11 -38 19 -87 17
-111 -3 -40 -5 -44 -28 -41 -14 2 -30 10 -36 18 -14 18 -24 7 -24 -27 0 -31
33 -61 58 -52 10 5 13 2 8 -6 -5 -7 -18 -10 -31 -7 -31 8 -38 -5 -18 -33 18
-27 71 -51 110 -51 24 0 30 -6 40 -37 6 -21 14 -45 18 -54 5 -14 -1 -15 -43
-11 -27 2 -58 0 -69 -6 -15 -8 -22 -7 -31 9 -9 14 -24 19 -55 19 -24 0 -47 -4
-53 -9 -5 -5 -33 -11 -61 -13 l-53 -5 6 41 c11 69 18 76 77 76 74 0 92 15 83
70 -5 31 1 79 19 164 25 117 66 444 58 458 -10 18 -105 19 -225 3 -134 -17
-368 -13 -368 7 0 5 21 6 48 2 53 -7 331 11 487 31 55 7 119 13 141 14 39 1
42 -1 46 -29z m2054 8 c-21 -12 -155 -25 -145 -14 4 4 35 11 70 15 93 12 97
12 75 -1z m-616 -29 c118 -6 224 -15 235 -20 22 -10 -179 -3 -342 12 -57 4
-108 7 -115 5 -7 -3 -25 -7 -40 -10 -25 -6 -27 -10 -33 -83 -11 -135 -33 -252
-59 -310 -15 -30 -26 -70 -26 -88 0 -18 -7 -39 -16 -46 -14 -11 -19 -10 -35
10 -24 29 -24 41 -1 41 16 1 16 2 -1 14 -17 13 -16 15 16 25 27 9 38 21 51 54
27 72 24 77 -44 77 l-60 0 0 38 c0 22 7 61 15 88 9 27 20 74 25 104 4 30 13
68 19 84 l12 29 92 -6 c51 -4 189 -12 307 -18z m670 -290 c0 -9 -6 -19 -13
-22 -12 -4 -12 -16 -2 -65 7 -33 16 -65 19 -71 5 -7 -2 -11 -16 -11 l-23 0 25
-20 c30 -22 20 -38 -14 -22 -21 9 -25 8 -28 -6 -3 -13 -8 -9 -21 16 -17 31
-17 32 2 32 17 0 18 3 9 28 -9 23 -7 41 10 92 12 35 22 73 22 84 1 21 1 21 15
2 8 -11 15 -27 15 -37z m-1540 -234 c0 -35 -4 -67 -10 -70 -6 -4 -10 22 -10
70 0 48 4 74 10 70 6 -3 10 -35 10 -70z m155 43 c14 -6 24 -17 21 -24 -3 -8 4
-39 15 -71 17 -50 17 -58 4 -66 -19 -10 -19 -61 0 -81 8 -8 15 -17 15 -19 0
-10 -132 -19 -141 -10 -5 5 -10 52 -10 106 -2 110 13 150 52 140 19 -5 21 -3
17 15 -7 26 -7 26 27 10z m-245 -45 c0 -20 -4 -50 -10 -67 -5 -17 -15 -66 -22
-108 l-12 -78 -107 0 c-59 0 -114 -2 -121 -5 -12 -5 -13 8 -7 72 4 43 13 110
20 148 l12 70 124 2 123 2 0 -36z m-2201 13 c17 -21 -10 -266 -30 -266 -5 0
-9 -16 -9 -36 0 -31 -2 -35 -14 -25 -8 7 -27 11 -43 9 -24 -3 -29 -8 -33 -43
-10 -72 -18 -9 -20 150 -1 83 -3 163 -3 179 -2 24 3 31 23 37 44 12 117 10
129 -5z m135 4 c19 -7 26 -17 26 -37 0 -16 9 -56 20 -90 25 -81 37 -188 21
-197 -6 -4 -11 -1 -11 7 0 21 -36 51 -45 37 -4 -6 -21 -10 -38 -8 -28 3 -32 0
-37 -27 l-6 -30 -7 33 c-7 34 6 191 22 262 5 22 7 40 4 40 -2 0 -1 5 2 10 8
13 17 13 49 0z m254 -28 c-4 -15 5 -21 53 -31 46 -11 59 -18 59 -32 0 -21 -20
-25 -38 -7 -9 9 -17 6 -37 -12 -14 -13 -28 -20 -32 -16 -5 4 -1 13 8 19 20 15
13 37 -11 37 -18 0 -30 19 -30 46 0 8 7 14 16 14 11 0 15 -6 12 -18z m2452
-58 l0 -47 68 7 c100 9 507 20 524 13 12 -4 13 -14 5 -54 l-10 -49 -73 3 c-41
2 -76 -1 -79 -7 -4 -7 -12 -7 -25 0 -13 7 -26 6 -44 -4 -19 -10 -39 -11 -73
-5 -26 5 -56 6 -67 3 -21 -7 -83 -11 -234 -17 -80 -3 -83 -3 -78 17 3 12 9 38
12 59 6 33 10 37 35 37 24 0 29 4 29 25 0 14 -8 29 -20 35 -24 13 -18 30 11
30 16 0 19 -7 19 -46z m-148 -46 c-2 -46 -8 -89 -12 -97 -4 -8 -23 -14 -43
-15 -32 -1 -36 2 -46 35 -6 20 -11 44 -11 52 0 17 30 28 65 24 15 -1 21 5 23
28 3 24 18 55 26 55 1 0 0 -37 -2 -82z m1140 38 c13 -3 34 -7 47 -8 20 -2 29
-14 47 -60 l22 -58 -25 0 c-16 0 -27 7 -30 20 -6 21 -18 26 -27 11 -3 -5 -15
-11 -27 -14 -15 -4 -19 -2 -15 9 7 18 -13 18 -33 0 -25 -21 -108 -29 -115 -11
-6 16 -56 20 -71 6 -13 -11 -85 -34 -91 -28 -7 6 17 110 27 122 6 5 53 8 109
7 98 -4 100 -3 111 21 11 24 12 24 30 6 10 -10 29 -21 41 -23z m-3252 -61 l0
-35 54 0 53 0 7 -37 c3 -21 5 -83 4 -138 l-1 -100 -6 82 c-3 45 -9 84 -12 87
-3 3 -66 8 -140 11 -156 6 -225 24 -240 62 -5 13 -9 26 -9 28 0 2 18 6 41 10
31 5 45 3 60 -11 18 -17 21 -16 67 4 26 12 58 23 72 24 17 2 26 10 28 26 5 35
22 26 22 -13z m704 -77 c-10 -76 -1 -72 -137 -62 -148 11 -320 12 -364 2 l-33
-7 0 54 0 55 270 0 270 0 -6 -42z m4206 -2 c0 -7 -6 -19 -14 -25 -19 -16 -118
-10 -124 7 -3 9 3 11 20 8 12 -3 37 1 53 8 39 19 65 19 65 2z m-1543 -60 c-7
-17 11 -36 28 -30 7 3 15 -2 18 -11 9 -21 -27 -55 -58 -55 -31 0 -31 -7 -2
-30 32 -27 17 -34 -66 -31 -35 1 -37 2 -22 17 8 9 22 29 30 45 l16 29 -36 0
c-22 0 -34 4 -30 10 3 6 17 10 30 10 30 0 55 10 55 21 0 5 -8 9 -17 9 -12 1
-7 6 12 15 39 18 48 18 42 1z m511 -13 c3 -10 -13 -13 -57 -13 -56 0 -79 11
-48 24 23 9 100 1 105 -11z m-3168 -79 c0 -31 -4 -44 -14 -44 -21 0 -26 24
-14 64 14 46 28 37 28 -20z m-2271 -15 c43 -15 71 -69 36 -69 -8 0 -15 5 -15
10 0 7 -6 7 -19 0 -24 -12 -101 -14 -101 -2 0 5 10 14 23 20 17 8 18 11 5 11
-10 1 -18 5 -18 11 0 10 29 29 46 30 6 0 25 -5 43 -11z m167 -30 c7 -5 37 -6
68 -3 60 7 73 -3 29 -23 -32 -16 -203 -18 -203 -3 0 6 8 19 18 29 17 20 63 20
88 0z m-2502 -40 c4 -23 4 -44 1 -48 -3 -3 -66 -7 -140 -9 -102 -3 -140 -1
-162 10 -29 15 -163 13 -163 -1 0 -9 114 -31 161 -31 26 0 30 -3 19 -10 -8 -5
-38 -10 -67 -10 -29 0 -74 -8 -100 -17 -71 -25 -214 -24 -273 3 -36 16 -53 18
-88 11 -26 -5 -53 -5 -70 2 l-27 9 35 2 35 2 -35 10 c-19 6 -59 8 -89 5 -54
-6 -158 9 -176 24 -5 5 10 9 35 9 25 0 153 9 285 20 569 49 684 58 746 59 l66
1 7 -41z m5606 -51 c0 -51 -3 -68 -10 -58 -16 24 -11 130 6 130 2 0 4 -33 4
-72z m1315 62 c4 -6 -8 -10 -29 -10 -26 0 -36 -5 -41 -20 -7 -23 -18 -25 -46
-10 -25 14 -24 29 4 40 30 12 104 12 112 0z m-1481 -22 c-10 -33 -10 -33 -61
-20 -42 12 -48 11 -68 -8 -12 -11 -27 -20 -33 -20 -7 0 -12 -4 -12 -10 0 -5
18 -10 40 -10 36 0 39 -2 29 -17 -9 -15 -22 -17 -71 -15 l-60 4 32 33 c27 28
30 36 21 53 -6 11 -11 23 -11 26 0 3 45 6 101 6 99 0 100 0 93 -22z m-2291
-72 c-4 -18 -1 -26 8 -26 30 0 42 17 36 49 -6 31 -6 31 33 31 38 0 40 -2 40
-30 0 -17 -7 -33 -17 -38 -9 -6 -14 -16 -10 -25 7 -19 -24 -31 -58 -23 -42 11
-55 33 -55 94 1 57 1 57 14 26 8 -17 12 -43 9 -58z m3147 54 c0 -21 -50 -40
-123 -46 -66 -6 -77 -5 -72 8 4 11 22 15 63 15 34 0 69 6 87 16 35 19 45 21
45 7z m-5970 -26 c45 6 50 5 50 -13 0 -26 -4 -27 -75 -35 -47 -5 -56 -4 -41 5
17 10 16 12 -13 26 -17 9 -31 19 -31 24 0 15 35 16 47 1 9 -11 24 -13 63 -8z
m6584 14 c-5 -8 4 -9 34 -5 36 6 40 5 35 -11 -4 -16 -11 -18 -47 -12 -23 3
-47 10 -54 14 -17 10 -5 26 19 26 13 0 18 -4 13 -12z m251 -13 c1 -11 7 -19
14 -17 7 1 22 0 33 -4 41 -13 -3 -28 -93 -32 -67 -3 -90 -1 -85 7 4 6 18 11
31 11 13 0 27 5 30 10 4 6 -10 10 -34 10 -43 0 -50 7 -29 28 8 8 35 12 73 10
52 -3 60 -6 60 -23z m-7017 1 c52 -8 37 -36 -19 -36 -35 0 -40 2 -34 19 4 13
0 21 -12 25 -10 3 -4 3 12 1 17 -3 40 -7 53 -9z m2142 6 c0 -20 -28 -32 -76
-32 -34 0 -56 -5 -64 -15 -15 -19 -95 -20 -133 -2 -32 14 -35 27 -6 27 11 0
17 5 14 10 -4 7 31 9 99 8 59 -1 109 2 113 5 9 10 53 9 53 -1z m4155 -7 c0
-18 -80 -18 -95 0 -12 15 -8 16 41 13 30 -2 54 -7 54 -13z m-1895 -29 c0 -8
-13 -19 -30 -26 -36 -15 -124 -19 -128 -5 -1 6 26 11 64 13 56 2 67 6 71 22 6
21 23 18 23 -4z m320 16 c0 -15 -178 -36 -203 -24 -19 9 -15 11 28 12 28 1 73
5 100 10 72 11 75 11 75 2z m50 -21 c0 -24 -18 -39 -50 -42 -70 -6 -98 13 -36
25 19 4 39 13 46 21 17 21 40 19 40 -4z m185 8 c4 -5 10 -35 14 -65 l8 -54
-32 0 c-17 0 -35 -4 -40 -9 -6 -5 -36 -4 -74 4 -90 19 -154 22 -159 7 -2 -7 6
-12 19 -12 17 0 20 -3 12 -11 -16 -16 -39 -5 -46 20 -4 17 1 22 31 29 21 5 69
17 107 27 39 9 89 17 113 16 31 -1 42 3 42 13 0 8 -4 18 -10 21 -13 8 -13 25
-1 25 6 0 13 -5 16 -11z m2245 -27 c33 -3 40 -7 25 -12 -18 -6 -17 -8 10 -21
55 -27 43 -40 -34 -37 -57 2 -71 6 -75 21 -2 9 -13 17 -24 17 -12 0 -23 4 -27
10 -8 13 47 41 65 33 8 -4 35 -8 60 -11z m-3576 2 c15 -6 15 -8 -1 -20 -16
-12 -11 -13 37 -14 l55 -1 -68 -21 c-65 -20 -68 -20 -87 -3 -24 22 -25 29 -4
49 16 17 41 20 68 10z m-760 -46 c-4 -24 -13 -49 -22 -55 -37 -30 -90 -4 -77
36 9 28 53 61 81 61 23 0 24 -3 18 -42z m-2588 -2 c0 -27 -5 -36 -20 -40 -37
-10 -64 -6 -80 10 -9 8 -22 14 -29 11 -13 -5 -72 22 -64 29 2 3 46 8 98 13 52
4 94 9 95 10 0 0 0 -14 0 -33z m854 -1 c20 -24 4 -30 -75 -30 -82 1 -98 8 -69
30 26 20 127 20 144 0z m5918 6 c21 -13 -21 -21 -110 -21 -71 0 -106 11 -76
23 22 9 172 7 186 -2z m456 -11 c14 -5 2 -10 -43 -19 -64 -13 -91 -6 -91 24 0
12 96 9 134 -5z m989 6 c64 6 84 -11 52 -46 -34 -38 -162 -51 -148 -14 8 21
-7 17 -34 -8 -13 -12 -26 -18 -30 -14 -4 4 3 16 17 26 14 10 25 27 25 37 0 18
46 36 56 21 3 -4 31 -5 62 -2z m-3395 -14 c2 -8 -2 -10 -15 -5 -17 6 -17 5 1
-15 20 -23 70 -30 81 -12 5 8 133 3 144 -6 2 -2 -3 -12 -11 -21 -9 -10 -21
-28 -27 -40 -11 -22 -11 -23 36 -16 27 3 56 10 66 15 27 14 21 -8 -9 -31 -28
-22 -50 -28 -39 -11 3 6 2 10 -3 10 -6 0 -12 -7 -16 -15 -3 -8 -12 -15 -21
-15 -14 0 -14 -3 0 -30 15 -30 13 -50 -5 -50 -5 0 -14 18 -20 40 -6 21 -15 42
-20 45 -5 3 -2 21 7 42 14 36 14 38 -8 56 -33 27 -65 19 -61 -15 3 -32 -2 -33
-51 -13 -19 8 -37 11 -41 8 -3 -4 -6 5 -6 18 0 13 -7 33 -15 43 -8 11 -15 24
-15 29 0 13 43 4 48 -11z m502 -22 c0 -6 -10 -10 -22 -9 -42 4 -58 -1 -58 -16
0 -8 -4 -15 -9 -15 -15 0 -20 27 -8 39 14 14 97 15 97 1z m2650 0 c0 -5 -7
-10 -15 -10 -18 0 -20 -20 -2 -21 6 0 3 -4 -8 -9 -11 -5 -63 -9 -116 -9 -86
-1 -172 -11 -221 -27 -13 -4 -18 0 -18 15 0 16 6 21 25 21 14 0 28 6 31 14 4
11 12 13 31 5 43 -16 130 -11 170 11 39 21 123 28 123 10z m-3616 -15 c-4 -8
-10 -12 -15 -9 -11 6 -2 24 11 24 5 0 7 -7 4 -15z m846 -35 c0 -15 -31 -20
-36 -6 -3 8 -14 16 -25 19 -10 3 -19 12 -19 20 0 12 7 11 40 -5 22 -11 40 -24
40 -28z m2021 21 c24 -11 47 -17 51 -15 4 3 8 0 8 -5 0 -6 -9 -11 -20 -11 -24
0 -90 31 -90 42 0 11 2 11 51 -11z m-3584 -15 c-6 -18 -77 -20 -77 -2 0 18 15
23 52 18 16 -2 27 -9 25 -16z m392 3 c34 -12 40 -24 15 -33 -36 -14 -94 10
-79 33 8 14 24 14 64 0z m219 -10 c2 -11 -11 -21 -40 -32 -24 -10 -50 -17 -58
-17 -7 0 -22 -8 -32 -17 -13 -11 -22 -13 -29 -6 -7 7 9 23 52 52 63 42 101 49
107 20z m-2513 1 c-3 -5 -12 -10 -20 -10 -7 0 -15 -4 -17 -9 -6 -19 -42 -16
-46 3 -3 15 0 18 17 13 12 -3 24 -1 27 4 3 5 14 9 25 9 11 0 17 -4 14 -10z
m1740 -10 c0 -11 -9 -14 -34 -12 -27 3 -33 1 -28 -12 5 -13 0 -16 -26 -15 -31
0 -32 0 -7 10 l25 10 -27 15 c-16 8 -28 16 -28 17 0 1 28 2 63 2 48 0 62 -4
62 -15z m1160 10 c3 -5 17 -10 30 -10 29 0 41 -16 19 -24 -29 -11 -82 -6 -87
8 -9 24 25 47 38 26z m2799 -6 c31 -12 16 -24 -29 -24 -42 0 -54 7 -38 23 8 9
46 9 67 1z m-1681 -14 c-17 -4 -49 -4 -70 0 -32 6 -26 8 32 8 53 0 62 -2 38
-8z m-4785 -7 c-10 -2 -26 -2 -35 0 -10 3 -2 5 17 5 19 0 27 -2 18 -5z m6842
-20 c25 -9 -19 -22 -78 -22 -39 -1 -53 2 -50 12 8 21 80 27 128 10z m-6844
-53 c0 -14 6 -35 12 -47 11 -19 9 -26 -8 -43 -21 -21 -94 -28 -105 -10 -4 6 5
10 21 10 21 0 24 3 15 14 -9 11 -6 17 14 30 21 14 24 20 15 32 -16 19 -4 46
17 42 11 -2 18 -13 19 -28z m4144 24 c0 -3 -9 -17 -20 -31 -19 -24 -28 -73
-13 -73 3 0 15 7 25 17 11 10 18 12 18 4 0 -7 12 -23 28 -36 20 -18 24 -26 16
-35 -9 -9 -17 -9 -31 -1 -11 5 -24 6 -29 1 -5 -4 -26 -5 -47 -2 l-39 7 21 27
c25 31 27 42 6 34 -13 -5 -13 -1 1 27 9 17 23 40 32 50 15 17 32 23 32 11z
m1916 -70 c-6 -21 -2 -23 36 -26 l43 -3 -33 -20 c-18 -11 -35 -30 -39 -43 -3
-15 -11 -21 -20 -18 -8 3 -28 -1 -44 -10 -25 -12 -33 -13 -46 -3 -13 11 -12
14 9 22 21 8 21 9 5 18 -9 6 -15 14 -12 20 11 16 33 10 40 -12 4 -12 11 -17
15 -13 7 8 19 75 21 117 0 15 3 16 15 6 9 -8 13 -21 10 -35z m-6646 29 c26 -9
-20 -22 -80 -21 -50 0 -53 1 -29 11 30 13 86 19 109 10z m1818 -25 c24 -24 30
-68 8 -68 -9 0 -12 8 -8 25 4 24 3 25 -51 25 -45 0 -58 4 -67 19 -9 17 -6 20
18 24 41 7 74 -2 100 -25z m-1648 8 c0 -8 -6 -16 -12 -19 -10 -4 -10 -7 0 -18
20 -21 15 -26 -34 -32 -25 -2 -53 -13 -63 -22 -33 -35 60 -10 128 34 58 37
101 52 101 35 0 -4 -16 -24 -36 -46 -41 -46 -41 -69 2 -80 39 -10 58 -32 51
-57 -8 -32 32 -51 105 -51 60 0 100 -11 82 -23 -5 -3 -49 -5 -98 -6 -131 -1
-206 -33 -206 -88 0 -18 -5 -23 -27 -23 -14 0 -35 7 -45 17 -16 14 -18 14 -18
1 0 -22 -49 -20 -63 3 -15 25 -27 24 -27 -1 0 -21 -15 -27 -25 -10 -4 6 -24
10 -46 8 -57 -3 -72 17 -23 31 22 6 48 11 58 11 14 0 17 3 9 11 -7 7 -22 7
-52 -2 -38 -11 -43 -10 -64 9 -13 12 -27 22 -32 22 -5 0 -17 7 -27 17 -10 9
-42 24 -70 34 -29 10 -45 18 -35 19 10 0 17 6 14 13 -2 6 8 17 22 24 26 11 25
11 -12 12 -23 1 -36 5 -35 13 2 7 -7 14 -19 16 -13 2 -23 10 -23 18 0 8 -11
14 -27 15 -21 0 -13 5 27 17 32 10 83 16 123 15 65 -1 68 0 53 16 -20 22 -20
31 -1 31 9 0 21 -11 27 -25 14 -30 19 -31 38 -6 9 14 21 18 39 15 17 -3 44 4
76 21 76 41 165 57 165 31z m5990 -20 c0 -8 3 -21 6 -30 4 -12 0 -16 -15 -16
-23 0 -24 3 -15 38 7 24 24 30 24 8z m-97 -26 c9 0 17 -6 17 -13 0 -18 37 -39
46 -26 4 8 9 7 15 -2 6 -11 12 -11 33 1 14 7 29 10 33 6 12 -11 -27 -36 -56
-36 -40 0 -141 67 -141 93 0 6 8 3 18 -6 10 -10 26 -17 35 -17z m-2738 9 c4
-6 4 -13 0 -17 -6 -7 -257 -4 -264 3 -1 2 0 8 4 14 9 15 251 15 260 0z m725 1
c0 -5 -17 -10 -39 -10 -22 0 -44 -6 -51 -15 -9 -10 -31 -15 -73 -15 -58 0 -60
1 -44 17 12 12 34 18 67 19 27 0 53 3 57 7 10 11 83 8 83 -3z m1947 -50 c3
-42 -11 -54 -22 -19 -4 11 -18 24 -31 29 -35 14 -29 27 14 28 36 2 37 1 39
-38z m-1427 -37 c-53 -58 -54 -59 -108 -66 -36 -4 -41 -3 -32 8 7 8 9 19 5 25
-4 6 5 10 22 10 39 0 79 23 75 43 -2 13 4 17 27 17 16 0 33 5 36 11 4 6 9 8
12 5 3 -3 -14 -27 -37 -53z m297 0 c15 -23 15 -23 -36 -23 -61 0 -67 16 -18
54 28 22 32 23 36 9 2 -10 10 -27 18 -40z m879 33 c10 -8 16 -17 13 -20 -10
-10 -61 13 -54 24 8 14 18 13 41 -4z m557 -3 c12 -7 8 -30 -10 -44 -12 -10
-15 -10 -9 -1 5 8 -2 14 -23 18 -22 5 -31 12 -31 26 0 17 5 19 33 13 17 -4 35
-9 40 -12z m1762 -2 c-33 -14 -110 -30 -115 -24 -13 13 39 33 84 32 36 0 45
-3 31 -8z m-2210 -17 c38 -25 30 -34 -31 -34 -55 0 -56 0 -50 -25 6 -24 4 -25
-20 -19 -20 5 -31 2 -40 -10 -7 -10 -15 -13 -18 -7 -6 8 13 25 99 88 37 27 31
26 60 7z m-1515 -30 c0 -13 -6 -24 -13 -24 -7 0 -23 -7 -36 -17 -23 -15 -23
-17 -6 -30 14 -10 15 -13 4 -13 -8 -1 -5 -5 8 -13 19 -11 17 -12 -28 -14 -34
-1 -49 3 -46 10 2 7 14 13 26 15 21 3 21 5 5 16 -16 12 -14 16 24 43 23 17 39
33 36 36 -9 9 6 28 17 22 5 -4 9 -17 9 -31z m1184 14 c18 -26 21 -42 6 -33 -6
4 -17 2 -25 -5 -10 -9 -15 -7 -20 9 -3 12 -11 21 -16 21 -14 0 14 29 28 30 6
0 19 -10 27 -22z m866 4 c0 -21 -49 -61 -67 -55 -21 7 -15 22 17 38 17 9 28
20 25 25 -4 6 1 10 9 10 9 0 16 -8 16 -18z m1235 -22 c92 -1 98 -2 80 -16 -16
-12 -44 -14 -130 -12 l-110 3 -15 -33 c-12 -29 -18 -33 -40 -27 -14 3 -88 9
-165 11 -142 6 -237 -6 -310 -37 l-30 -13 50 -6 c40 -4 51 -2 53 11 2 12 19
15 85 15 45 0 128 4 185 9 68 5 102 5 102 -2 0 -23 -66 -38 -156 -36 -90 2
-92 1 -123 -29 -18 -17 -30 -37 -27 -43 3 -8 -14 -12 -57 -11 -74 1 -91 10
-83 42 9 34 -11 37 -238 34 -76 -1 -153 -6 -170 -11 -17 -5 -63 -9 -103 -9
-72 0 -121 13 -136 37 -4 7 -19 13 -32 13 -13 0 -26 4 -30 9 -8 14 22 27 79
36 46 6 48 5 43 -14 -4 -18 -1 -21 30 -21 31 0 34 2 23 15 -7 9 -10 18 -7 22
9 8 149 -15 200 -33 52 -18 57 -18 57 6 0 18 4 20 35 14 19 -3 41 -2 48 4 6 5
57 12 111 14 72 4 102 10 110 20 6 8 28 18 49 22 33 6 37 5 37 -14 0 -19 2
-19 23 -8 15 8 62 12 146 10 136 -2 210 10 192 32 -18 21 -4 23 61 10 35 -8
108 -14 163 -14z m-2387 -27 c-9 -11 -21 -12 -68 -4 -3 1 9 12 25 26 27 22 31
22 42 8 9 -12 10 -20 1 -30z m-6283 27 c-3 -5 -21 -9 -38 -9 l-32 2 35 7 c19
4 36 8 38 9 2 0 0 -3 -3 -9z m1784 4 c48 -10 37 -24 -19 -24 -51 0 -60 -6 -38
-28 17 -17 -5 -16 -33 1 -17 10 -23 10 -26 0 -5 -15 -61 -17 -83 -3 -12 7 -12
12 -2 22 31 32 127 47 201 32z m4179 -26 c7 -7 12 -23 12 -36 0 -21 -3 -23
-22 -17 -13 3 -48 12 -78 19 -38 8 -50 14 -37 19 9 3 29 2 43 -3 38 -15 54
-12 54 10 0 23 10 26 28 8z m-5328 -8 c0 -5 8 -10 17 -10 29 0 5 -12 -39 -20
-46 -9 -78 2 -78 25 0 11 13 15 50 15 28 0 50 -4 50 -10z m5728 -39 c-7 -2
-20 -14 -29 -25 -25 -30 -34 -13 -19 34 l13 40 24 -22 c17 -15 20 -24 11 -27z
m332 -2 c-10 -17 -17 -19 -58 -13 -26 4 -49 8 -52 11 -11 10 29 23 73 23 45 0
47 -1 37 -21z m270 -24 c12 -10 45 -13 147 -9 115 4 132 2 127 -11 -5 -12 2
-15 35 -13 23 1 44 -2 49 -6 4 -5 -49 -6 -118 -2 -352 16 -405 17 -390 7 12
-8 8 -11 -16 -11 -19 0 -34 6 -38 15 -3 8 -1 15 5 15 6 0 9 6 6 14 -4 9 1 17
11 20 31 9 166 -5 182 -19z m-6705 -15 c4 -6 -10 -10 -34 -10 -22 0 -43 -4
-46 -10 -4 -6 17 -10 54 -10 35 0 61 -4 61 -10 0 -6 12 -16 28 -22 l27 -11
-35 -8 c-31 -7 -60 -31 -60 -51 0 -4 29 -8 65 -8 51 0 65 -3 65 -15 0 -8 6
-15 13 -16 6 0 3 -4 -8 -9 -29 -12 -344 -12 -325 0 25 16 -2 26 -124 45 -138
22 -155 30 -79 38 33 4 70 11 84 16 22 9 20 10 -16 11 -74 1 -72 17 4 25 78 8
98 20 50 30 -56 13 -23 15 57 5 64 -9 86 -8 119 4 47 17 91 20 100 6z m363 1
c10 -6 8 -10 -9 -14 -24 -7 -39 -1 -39 14 0 11 30 12 48 0z m2937 -31 c12 -19
-34 -50 -75 -50 -50 0 -51 12 -2 38 41 23 68 27 77 12z m-746 -19 c8 -14 7
-22 -4 -31 -21 -17 -105 -26 -105 -11 0 6 17 11 41 11 39 0 41 1 35 25 -8 31
18 35 33 6z m3121 4 c0 -8 -9 -15 -20 -15 -22 0 -27 -15 -7 -23 8 -4 7 -6 -3
-6 -27 -1 -43 15 -35 38 8 25 65 31 65 6z m-6977 -23 l197 -7 -33 -26 -33 -27
-345 -2 c-431 -3 -508 -2 -489 9 8 5 49 14 90 21 95 17 120 29 60 30 -35 1
-41 3 -25 10 20 9 186 7 578 -8z m8972 -3 c12 -12 -3 -26 -35 -34 -32 -8 -66
16 -57 39 5 14 14 16 44 10 21 -3 42 -10 48 -15z m-2325 -9 c11 -7 -1 -10 -40
-10 -39 0 -51 3 -40 10 8 5 26 10 40 10 14 0 32 -5 40 -10z m2225 -15 c0 -5
-23 -11 -52 -13 -29 -2 -56 -9 -63 -17 -13 -16 -80 -21 -80 -6 0 10 19 20 75
37 47 14 120 13 120 -1z m-8139 -4 c-4 -5 -39 -12 -79 -15 -168 -13 -250 -16
-244 -10 20 20 335 44 323 25z m944 -51 c-20 -13 -33 -13 -25 0 3 6 14 10 23
10 15 0 15 -2 2 -10z m6579 4 c17 -4 28 -10 25 -15 -3 -5 4 -9 16 -9 12 0 18
-4 15 -10 -8 -14 -68 -13 -99 2 -20 9 -23 14 -15 25 13 15 15 15 58 7z m-6235
-43 c8 -12 -42 -20 -84 -13 -33 5 -34 6 -10 13 36 10 88 10 94 0z m-144 -41
c0 -16 -40 -27 -95 -26 -39 1 -50 5 -53 19 -3 15 6 17 72 17 45 0 76 -4 76
-10z m4976 -7 c23 -3 51 0 63 7 31 16 36 7 15 -29 -19 -33 -29 -38 -39 -21 -9
15 -35 12 -29 -4 3 -7 -7 -21 -22 -31 -22 -14 -31 -15 -46 -6 -10 6 -25 11
-33 11 -26 0 -28 28 -3 59 14 18 29 28 38 24 8 -3 33 -7 56 -10z m-5729 -5
l28 -11 -48 -10 c-50 -10 -76 0 -63 22 9 14 47 14 83 -1z m888 1 c5 -7 29 -8
70 -4 57 6 64 5 74 -13 14 -27 6 -32 -54 -32 -28 0 -56 -5 -61 -10 -11 -11
-134 -2 -134 9 0 7 81 61 92 61 4 0 10 -5 13 -11z m4270 1 c4 -6 -19 -11 -59
-12 -36 -1 -73 -2 -83 -2 -9 -1 -18 5 -20 12 -6 15 152 17 162 2z m1179 -10
c6 -6 0 -16 -14 -28 l-24 -20 42 -7 c23 -4 44 -11 48 -16 7 -12 -39 -11 -91 1
-25 6 -41 6 -43 0 -5 -13 -59 -13 -66 -1 -4 5 0 12 6 15 10 5 10 7 1 12 -21 9
4 42 40 53 35 11 86 6 101 -9z m744 3 c-5 -25 -50 -44 -87 -37 -42 9 -39 20
12 37 58 21 79 21 75 0z m1425 5 c27 -13 35 -32 17 -43 -5 -3 -10 -15 -10 -26
0 -17 -7 -19 -59 -19 -41 0 -65 5 -75 16 -19 19 -12 34 14 34 11 0 27 11 36
25 18 28 37 31 77 13z m-2434 -29 c49 -17 37 -24 -40 -22 -74 1 -85 5 -74 22
8 14 73 14 114 0z m-3019 -19 c13 -8 13 -11 0 -24 -17 -18 -60 -11 -60 9 0 22
35 31 60 15z m4986 -7 c24 -33 13 -47 -41 -53 -20 -3 -15 18 7 24 22 7 22 8
-7 18 -27 10 -28 12 -10 19 30 12 37 11 51 -8z m894 7 c13 -8 13 -11 1 -19
-11 -7 -9 -13 8 -30 28 -28 27 -31 -15 -31 -31 0 -35 3 -29 20 4 11 2 20 -4
20 -6 0 -11 7 -11 15 0 8 -6 15 -14 15 -8 0 -18 5 -21 10 -8 13 65 13 85 0z
m-6302 -12 c34 1 44 -13 15 -21 -60 -17 -68 -16 -87 10 l-19 26 29 -8 c16 -4
44 -7 62 -7z m-2568 -24 c0 -2 -9 -4 -20 -4 -11 0 -20 4 -20 9 0 5 9 7 20 4
11 -3 20 -7 20 -9z m2272 -23 c8 -23 7 -23 -29 -18 -45 8 -62 29 -30 39 35 10
49 5 59 -21z m1547 20 c10 -6 -3 -13 -43 -22 -60 -13 -83 -6 -52 17 22 16 74
18 95 5z m2111 -10 c0 -6 11 -9 24 -8 39 3 35 -18 -3 -21 -20 -2 -37 2 -42 10
-13 19 -11 28 6 28 8 0 15 -4 15 -9z m1428 -19 c4 -30 -26 -42 -44 -17 -10 14
-11 22 -2 32 16 20 42 12 46 -15z m-6428 -22 c0 -5 -21 -10 -46 -10 -27 0 -43
4 -39 10 3 6 24 10 46 10 21 0 39 -4 39 -10z"/>
<path d="M4700 761 c0 -18 -7 -19 -80 -16 -76 3 -79 2 -69 -16 6 -12 20 -19
39 -19 41 0 46 -16 8 -29 -41 -14 -29 -26 47 -45 76 -20 118 -20 158 0 31 16
31 17 9 25 -27 10 -28 29 -2 62 l20 25 -31 13 c-24 10 -35 10 -50 0 -16 -9
-21 -9 -25 4 -9 21 -24 19 -24 -4z"/>
<path d="M11358 683 c-31 -5 -37 -18 -10 -25 23 -6 82 10 82 22 0 10 -21 11
-72 3z"/>
<path d="M12437 996 c-11 -28 82 -43 168 -27 39 7 40 7 16 20 -19 10 -36 11
-89 0 -58 -11 -66 -10 -77 5 -11 14 -13 15 -18 2z"/>
<path d="M12164 686 c19 -16 19 -16 -4 -41 -28 -29 -21 -32 23 -7 27 14 55 17
187 14 159 -2 267 4 255 16 -4 4 -104 9 -223 12 -119 3 -226 9 -237 14 -20 7
-20 7 -1 -8z"/>
<path d="M11954 585 c-4 -9 -19 -15 -35 -15 -16 0 -29 -4 -29 -10 0 -12 -2
-12 80 4 63 13 64 14 37 25 -37 15 -46 14 -53 -4z"/>
<path d="M12567 543 c-15 -14 -5 -18 45 -18 32 0 53 5 55 13 3 8 -10 12 -44
12 -28 0 -53 -3 -56 -7z"/>
<path d="M1185 429 c-132 -3 -337 -7 -455 -8 -131 -2 -207 -6 -195 -11 52 -23
848 -5 910 20 20 9 20 9 0 8 -11 -1 -128 -5 -260 -9z"/>
</g>
</svg>
