<?xml version="1.0" encoding="utf-8"?>
<!-- Generator: Adobe Illustrator 23.0.1, SVG Export Plug-In . SVG Version: 6.00 Build 0)  -->
<svg version="1.1" id="Calque_1" xmlns="http://www.w3.org/2000/svg" xmlns:xlink="http://www.w3.org/1999/xlink" x="0px" y="0px"
	 viewBox="0 0 1280 1245" style="enable-background:new 0 0 1280 1245;" xml:space="preserve">
<g transform="translate(0.000000,1245.000000) scale(0.100000,-0.100000)">
	<path d="M7646,12434c-19-18-19-20-6-44c5-10,23-21,39-25c38-8,65-39,161-184c99-149,169-281,288-541c114-249,202-424,291-580
		c39-68,70-125,68-126c-1-1-56,20-122,47c-178,74-271,96-490,114c-404,33-483,30-750-30c-211-48-491-152-531-198
		c-11-13-58-38-105-55c-169-61-175-66-164-109c5-22,10-24,38-20c18,2,77,21,131,41c84,31,104,35,129,26c17-5,67-10,111-10
		c150,0,400-21,546-46c231-39,218-30,115-79c-50-23-125-67-168-98c-122-88-311-253-338-294c-13-20-64-71-113-112
		c-49-42-98-88-109-103c-24-32-17-74,15-84c17-5,28,2,55,35c19,22,68,68,109,101c65,53,79,60,117,60c24,0,127,25,228,55
		c212,64,346,93,462,102l82,5l-50-32c-27-18-90-67-140-110c-49-42-142-115-205-162c-267-200-469-412-707-746
		c-134-186-152-218-163-286c-6-41-19-68-43-99c-96-119-145-228-117-262c7-9,24-15,38-13c20,2,28,13,41,53c25,75,145,245,173,245
		c10,0,64,42,119,93c348,317,605,490,972,651c152,67,160,72,180,104c13,23,20,25,73,23c33-1,78,5,102,13c23,8,42,13,42,11
		s-9-25-21-52c-43-97-61-162-99-358c-45-224-47-263-23-349c14-51,15-71,5-139c-13-89-7-107,34-107c16,0,27,8,33,23
		c10,25,24,122,24,165c0,15,9,40,22,57c12,16,46,75,75,130s76,134,105,175c112,158,284,348,305,335c4-2,10-37,13-77
		c4-40,16-104,27-143c11-38,20-90,20-115c0-186,187-727,299-867c14-18,33-61,41-95c13-56,18-63,41-66c45-5,53,18,36,95
		c-14,61-14,71,1,98c10,20,18,75,23,165c9,164,24,281,50,420c16,79,19,123,14,177c-6,65-4,77,15,109c20,31,23,55,30,210
		c4,96,10,177,13,181c3,3,13-21,22-53c9-33,30-100,45-149c64-202,115-445,126-598c3-45,12-98,21-118c15-36,14-39-21-117
		c-20-44-36-86-36-94c0-36,65-54,77-20c10,26,110,232,133,273c27,47,66,195,79,296c6,43,19,105,31,138c32,91,44,231,33,360
		c-5,61-9,112-7,113c12,16,108-59,291-229c38-35,79-63,103-70c38-11,39-13,24-30c-9-10-13-23-8-31c14-23,58-71,99-107
		c197-176,348-342,490-536c48-66,99-128,115-138c30-19,53-66,70-145c11-49,31-82,49-82c4,0,16,6,26,14c18,13,18,18,6,82
		c-7,38-21,87-31,110c-13,30-15,46-7,59c6,11,7,49,3,96c-4,45-3,79,2,79c20,0,68-48,220-217c429-480,623-716,882-1078
		c195-272,542-809,613-951l35-70l-34-28c-20-15-40-38-46-51s-25-29-42-37c-17-7-50-30-74-52s-54-41-67-42c-24-3-25,0-25,55
		c0,73-25,111-74,111c-24,0-41,10-71,40c-48,49-91,65-131,50c-37-14-69-45-83-78c-10-24-16-27-61-26c-41,1-56,7-92,38
		c-23,20-62,42-85,48c-35,8-44,16-53,43c-25,76-82,117-161,117c-73-1-122-18-171-61c-43-38-47-40-93-33l-49,7l58,52
		c71,63,150,106,236,128c52,14,86,16,170,10c58-4,131-8,162-9c46-1,62-6,85-27c77-73,177-140,202-137c21,2,26,8,26,33s-12,39-83,93
		c-45,35-114,101-152,147c-90,108-176,184-352,312c-542,395-908,581-1510,768c-263,82-416,120-544,135c-55,6-164,25-244,42
		c-164,34-340,47-636,48c-522,1-1104-109-1484-281c-48-21-131-55-183-74c-173-62-444-207-678-360c-491-324-930-724-1370-1250
		c-165-197-188-230-195-277c-5-27-33-62-130-163c-68-71-127-138-130-148c-6-20-28-20-2216-15c-2341,6-2238,7-2238-36
		c0-40-72-39,2718-47c1478-4,2861-8,3075-8c214-1,387-5,387-10s-44-19-97-31c-213-49-463-137-608-213c-76-41-171-128-185-172
		c-21-64,21-120,122-164c56-25,168-43,533-86c517-60,673-86,855-141c220-67,264-129,136-192c-106-52-245-85-791-187
		c-719-135-1109-243-1406-390c-222-109-297-193-268-298c18-66,32-78,330-274c20-13,45-39,55-58c18-34,18-36-1-71
		c-87-162-395-279-1060-404c-675-126-1013-214-1375-357c-531-210-940-505-1031-743c-24-64-24-152,0-205c59-129,276-226,581-260
		c255-28,527-35,1410-35c1262,0,1716-21,2340-106c605-83,1170-238,1537-423c203-102,404-268,419-346c17-92-78-175-286-249
		c-41-15-86-34-99-43c-18-12-46-15-107-14c-94,2-124-8-124-44s28-45,139-45c89,0,102,2,128,23c15,13,64,36,108,51
		c265,92,375,230,305,384c-50,110-242,257-494,377c-542,260-1292,421-2246,485c-365,24-662,30-1508,30c-854,0-1155,6-1447,31
		c-370,30-595,138-595,284c0,173,334,467,753,665c416,196,810,309,1612,460c423,80,715,159,868,236c155,78,267,197,267,284
		c0,76-50,131-220,239c-145,92-180,125-180,165c0,61,89,128,288,216c278,125,621,219,1202,330c681,130,810,160,921,211
		c89,41,129,85,129,140c0,107-92,169-345,234c-167,43-299,63-800,124c-225,28-435,58-465,67c-63,19-110,49-110,70c0,8,19,33,42,55
		c86,83,376,203,657,271c135,32,172,47,193,76c10,15,32,20,98,26c289,22,483,25,1310,20l895-6l21-67c12-36,47-149,78-251
		s90-295,131-430s98-321,126-415c29-93,58-180,66-192c13-20,10-28-47-110c-33-48-76-107-95-131s-38-60-41-81c-10-62-75-93-284-137
		c-122-26-154-29-335-29c-110,0-232,4-271,8l-70,9l-28-40c-15-22-34-61-41-87c-13-41-13-49,1-70c27-42,74-55,231-66
		c151-10,410-43,420-52c7-7-9-28-454-625c-204-274-375-510-378-524c-4-15-2-36,5-48c15-28,68-60,100-60c28,0,80,48,143,134
		c20,26,55,68,78,93l41,45l43-16c23-9,87-27,141-41c351-85,1013-325,1111-403l21-17l-54-89c-59-97-70-149-36-179
		c28-25,101-48,120-38c10,5,44,51,76,103c33,51,207,316,387,589s332,506,338,518c9,17,16,19,30,12c10-6,258-74,552-151
		c701-186,824-217,884-225c28-4,60-13,72-21c28-17,58-18,70-1c5,6,18,39,28,71c33,110,8,133-209,187c-86,21-161,41-165,43
		c-5,3-11,32-14,63c-2,32-17,155-31,273c-57,456-68,586-95,1132c-6,131-11,172-25,193c-18,27-17,27,55,148c40,67,152,242,250,388
		c199,298,223,341,215,374c-7,28-43,55-104,78c-52,19-67,15-81-23c-5-16-18-33-28-38c-32-16-269-27-578-26c-332,2-463,14-675,64
		c-191,44-263,55-288,41c-11-6-188-234-393-507c-427-567-375-526-433-339c-80,253-276,903-282,930l-6,30l1334-3
		c733-2,1574-6,1868-10l534-7l-67-39c-38-22-88-63-113-90c-25-28-63-70-85-93c-56-61-67-88-44-113c10-11,23-20,30-20
		c6,0,33,25,59,55c43,50,51,55,89,55c23,0,64,7,91,15c88,27,91,20,23-47c-64-63-103-123-109-169c-2-13-16-50-32-81
		c-27-56-27-57-10-90c9-18,20-40,24-48c5-10,20-14,46-13c22,2,86,3,144,4c91,1,108,4,128,22c27,25,29,72,5,86c-16,9-16,11-2,28
		c38,44,28,103-17,103c-19,0-29-7-36-28c-18-45-120-121-173-129c-25-3-45-2-45,3c2,38,84,100,229,174c56,28,61,33,61,64
		c0,44-22,63-55,48c-14-7-25-16-25-21s-29-25-65-44s-65-31-65-27c0,7,85,89,173,167c51,46,53,50,34,77c-19,26-124,32-207,13
		c-36-9-66-14-68-12s29,22,70,46c40,23,87,55,103,70c17,16,44,29,64,31c41,4,61,29,45,56c-9,13-28,18-88,20c-68,3-76,5-76,22
		c0,11,6,20,13,20s28,11,46,24c19,14,46,28,62,31c36,8,54,37,39,65c-13,24-38,25-85,6c-19-8-35-12-35-8s29,38,65,76
		c36,37,65,74,65,81c0,6-5,26-11,44c-9,27-16,32-38,29c-15-2-30-12-36-25c-6-15-18-23-36-23c-44,0-130-30-231-81
		c-54-27-103-49-109-49s12,25,40,57c28,31,58,76,68,99c10,24,28,47,40,53c43,20,149,33,214,26c55-5,70-3,83,11c22,22,17,46-14,61
		c-38,20-183,15-265-8c-129-36-125-37-76,14c24,25,65,57,90,71c53,28,156,56,212,56c64,0,69,15,69,197c0,142-2,162-18,176
		c-10,10-23,17-29,17c-18,0-36-29-43-68l-6-37l-47,95l-46,95l25,26c30,32,40,63,49,166c9,100,25,132,25,50c0-70,12-97,45-97
		s45,27,45,99c0,69-13,104-48,127c-13,9-37,45-54,81c-85,188-520,775-853,1153c-156,177-741,762-885,886c-145,124-155,131-198,139
		l-37,7l-160,320c-183,366-224,432-343,558c-227,242-489,380-749,397c-51,3-93,10-93,14s18,23,40,40c57,46,407,414,438,461l25,39
		l-22,29c-22,30-14,43,9,15c19-23,27-19,78,38c210,235,500,503,696,645c66,48,139,106,161,129c36,37,49,43,111,54
		c96,16,130,50,84,82c-18,13-31,12-98,0c-50-10-106-13-158-10c-96,7-169-2-359-44c-250-56-421-123-687-272c-316-175-397-234-558-405
		c-89-95-99-103-104-81c-23,121-31,152-53,204c-90,218-362,475-674,639c-57,29-147,70-199,91c-52,20-128,49-167,66
		c-40,16-90,29-110,29c-21,0-60,11-87,25C7689,12454,7667,12456,7646,12434z M7935,12284c55-22,65-30,65-51c0-18,29-52,111-131
		c303-291,534-660,668-1064c20-59,41-105,54-115c21-17,22-26,22-183c0-139,3-173,20-218c10-29,27-60,37-69c17-15,24-14,63,9
		c11,6,27,14,35,18c9,4,22,46,36,116c38,194,85,328,180,518c96,189,195,322,355,476c66,64,79,82,85,118c6,39,11,44,73,79
		c139,77,303,154,414,192c151,52,426,111,514,110c67,0,68,0,43-17c-204-141-394-304-632-544c-235-237-212-229-385-140
		c-91,46-116,55-130,46c-10-6-19-20-21-31c-4-25,24-46,124-96c59-30,75-43,92-78l21-43l-33-40c-18-23-127-137-242-254
		c-115-118-213-222-218-233c-5-10-13-19-17-19c-5,0-24-14-44-31c-19-17-70-50-112-73c-64-34-78-45-78-65c0-43,28-49,90-18
		c48,23,61,26,98,17c23-5,81-14,129-20c281-34,605-225,872-514c84-91,106-109,144-119l45-12l100-200c55-110,109-216,119-236
		s30-90,44-155c28-134,58-235,84-279c12-21,19-61,23-133c3-57,3-101,0-98s-37,50-77,105c-136,190-346,419-500,546
		c-36,30-50,48-51,70c-1,17-6,43-10,58c-5,18,1,69,16,142c19,95,21,116,10,129c-16,19-45,21-58,4c-6-7-20-57-32-110
		c-12-54-26-98-31-98s-79,63-166,140c-116,103-167,143-198,152c-56,16-75,34-103,96c-37,83-84,152-172,250c-77,85-89,95-216,162
		c-114,59-139,69-156,60c-14-8-19-19-17-38c2-22,17-34,86-70c49-26,82-50,82-59s17-44,39-77c88-140,155-298,192-455
		c24-99,49-275,49-347c0-36,6-59,20-77c18-23,19-32,10-104c-13-94-57-265-76-290c-12-16-13-13-14,27c0,115-66,436-130,635
		c-15,50-38,123-50,163c-14,49-32,85-55,111c-23,25-43,64-59,117c-39,122-92,248-110,259c-19,12-49-4-54-28c-2-9,20-78,48-153
		c57-151,56-147,46-389c-8-167-21-255-38-255c-6,0-44,32-85,71c-59,55-80,70-100,67c-14-2-31-11-37-20c-9-15,1-29,59-88
		c39-39,86-82,106-96c52-36,57-91,24-270c-23-123-34-220-51-448c-3-43-10-74-14-70c-5,5-34,65-65,134c-103,229-168,444-189,630
		c-12,103-11,106,11,139c20,30,23,46,23,140c0,195,38,364,136,608c36,89,64,170,62,179c-5,25-35,41-54,29c-20-13-95-188-144-335
		c-44-132-68-246-80-369c-7-69-8-53-5,84c3,130,8,188,23,245c28,103,101,277,151,355c56,91,52,125-14,125c-29,0-31,2-27,29
		c7,46-21,55-152,48c-61-4-148-15-193-25l-81-18l-39,23c-51,31-167,67-285,88l-97,17l-15,43c-13,38-12,50,1,104c18,70,8,94-36,89
		c-21-3-28-12-41-59c-10-31-25-70-35-87c-34-57-124-69-209-27c-97,47-490,101-776,108l-105,2l48,22c89,41,302,111,418,137
		c206,46,342,59,497,47c206-16,216-18,227-43c8-18,43-34,160-73c186-63,298-115,426-200c55-36,108-65,119-65c22,0,43,32,34,54
		c-15,39-301,203-434,248c-36,12-57,24-48,26c21,4,391-143,438-174c19-13,69-68,110-122c42-53,84-98,93-100c23-5,47,15,47,38
		s-128,188-180,233c-22,19-40,43-40,53c0,11-32,75-71,144c-104,183-212,397-323,640c-111,244-190,392-276,520c-33,49-60,92-60,95
		C7860,12313,7866,12312,7935,12284z M8232,12159c192-96,345-205,480-341c137-139,206-263,234-421c7-43,20-90,28-104
		c12-25,12-33-8-78c-12-27-35-87-51-133c-16-45-32-79-35-75c-4,5-24,58-44,118c-43,129-180,412-261,540c-92,147-223,312-341,432
		c-61,62-109,113-107,113S8176,12187,8232,12159z M9442,11566c-219-228-404-588-470-915c-10-53-22-89-26-82c-14,22-19,235-7,301
		c15,86,92,299,133,369c47,78,285,316,381,379c43,29,81,52,84,52S9498,11623,9442,11566z M7810,10635c0-8-15-18-37-23
		c-21-5-85-21-143-34c-88-21-166-48-305-103c-50-20,7,17,85,54c47,23,101,50,121,61c24,13,55,18,100,18c67,0,144,16,154,32
		C7794,10655,7810,10652,7810,10635z M8025,10544c93-19,169-44,158-54c-13-11-189-80-273-106c-59-19-97-24-183-24
		c-171,0-292-23-591-115c-82-25-151-44-153-41c-2,2,27,30,66,62c64,54,73,59,123,60c42,1,70,10,138,47c108,58,251,107,410,142
		c69,15,134,33,145,40C7886,10570,7902,10568,8025,10544z M9530,10550c130-21,269-78,404-168c81-53,250-212,311-292
		c42-55,95-141,95-154c0-4-31,28-69,71c-245,278-638,502-928,530c-34,3-60,10-57,14C9293,10563,9451,10562,9530,10550z M8659,10486
		c-2-2-53-14-114-26c-255-51-490-132-736-256c-61-30-113-54-115-52s26,21,62,42c37,21,69,47,74,60c6,17,24,27,70,40
		c35,10,124,42,199,71c149,58,214,77,361,105C8545,10486,8670,10496,8659,10486z M8650,10298c-27-57-63-146-81-199l-31-95l-51-11
		c-125-25-262-66-394-118c-193-75-218-73-225,14c-3,51-26,73-55,55c-13-8-21-34-29-85c-5-41-15-82-20-92c-6-10-64-42-130-71
		c-362-158-689-373-967-636c-54-51-100-90-103-88c-6,7,96,161,204,305c212,284,407,480,662,664c91,66,112,77,156,81
		c36,3,86,23,180,70c258,131,506,224,724,272c63,13,124,27,135,29c11,3,32,5,47,6l27,1L8650,10298z M9413,10058c31-40,69-100,84-133
		c16-33,35-71,43-85c10-18,14-78,16-225c2-159,1-188-7-140c-52,310-92,444-197,648C9339,10148,9366,10120,9413,10058z M8520,9851
		c0-96-7-116-47-130c-91-33-352-356-459-568c-48-95-54-77-24,80c27,146,25,140,64,161c24,13,49,44,87,109c61,105,141,207,222,286
		c31,30,59,67,62,82c6,29,20,36,68,38C8520,9910,8520,9909,8520,9851z M8255,9798c-37-40-99-120-137-178c-78-115-82-105-17,47
		c21,51,39,104,39,117c0,14,7,26,18,29c9,3,49,17,87,31c39,14,72,25,73,26C8320,9870,8292,9838,8255,9798z M10834,9214
		c56-47,64-58,56-74c-5-10-10-52-10-92c0-121-29-129-71-20c-17,48-58,209-59,235C10750,9280,10773,9267,10834,9214z M11093,8982
		c16-17,17-24,7-43c-8-14-10-43-7-77c3-30,2-65-3-77c-9-23-12-21-82,48c-66,65-72,74-61,92c8,11,13,52,13,98v79l58-50
		C11049,9025,11083,8993,11093,8982z M11311,8753c-2-10-6-57-10-105c-3-48-11-92-17-98c-8-8-30,12-80,67l-70,78l23,40
		c21,34,23,49,19,104l-5,63l72-65C11292,8792,11314,8766,11311,8753z M11465,8618c50-55,64-78,60-93c-3-11-10-62-14-113
		s-12-97-18-103c-11-11-149,144-146,164c1,7,12,39,24,72c14,40,19,74,16,103c-2,23-1,42,3,42C11395,8690,11428,8657,11465,8618z
		 M11744,8295c-4-11-10-61-14-112c-6-85-21-128-41-121c-4,2-39,41-77,87l-70,83l25,47c16,31,26,72,30,120l6,73l73-78
		C11732,8334,11748,8310,11744,8295z M11898,8142l70-84l-14-33c-8-19-14-57-14-84c0-48-31-141-47-141c-4,1-41,44-81,96l-73,96l25,23
		c31,29,46,82,46,165c0,39,4,60,9,55C11824,8229,11860,8188,11898,8142z M8914,8130c166-9,235-19,394-55c12-3,22-12,22-19
		c0-34,57-80,158-127c516-241,1023-672,1315-1116c68-104,132-213,124-213c-2,0-33,13-68,29c-166,75-324,105-554,105
		c-247,0-401-35-559-128c-81-47-206-166-256-244l-34-53l-31,159c-55,274-150,540-277,767c-132,238-287,452-442,613
		c-80,83-122,119-275,241c-44,35-44,36-20,42C8449,8142,8706,8141,8914,8130z M8320,8087c9-19,47-56,95-91c112-83,327-301,419-426
		c114-153,230-346,307-505c105-219,161-396,215-674c14-73,30-131,40-142c14-16,15-23,5-45l-12-26l-62,59c-152,145-406,240-653,244
		c-222,4-373-26-528-102c-180-90-365-252-525-461c-45-60-86-108-89-108c-4,0-7,35-8,78c0,42-8,138-17,212c-65,529,89,1241,392,1815
		c32,61,62,125,66,143c3,17,10,32,13,33c4,0,54,6,112,14c58,7,130,13,160,14C8303,8120,8306,8118,8320,8087z M7880,8064
		c0-4-34-73-75-154c-132-262-230-525-299-808c-94-382-119-726-76-1067c11-87,18-161,16-163s-34,17-70,42c-143,98-282,147-468,168
		c-303,32-601-69-834-284c-24-22-44-39-44-36c0,20,53,291,70,358c153,598,501,1181,927,1553c86,75,106,98,120,138
		c17,48,19,50,103,85c105,44,267,93,425,129c66,15,134,31,150,35C7864,8070,7880,8072,7880,8064z M9655,8019c105-22,398-110,600-179
		c332-115,649-271,945-464c131-86,350-242,435-310c58-46,185-168,185-177c0-3-19-3-42,2c-72,14-239,10-302-6
		c-144-38-300-151-392-285c-26-39-53-69-58-67c-6,2-14,29-17,59c-5,45-19,77-75,169c-292,486-788,931-1352,1213
		c-84,42-152,78-152,79C9430,8059,9553,8041,9655,8019z M12114,7879c57-72,76-104,71-117c-4-9-11-51-15-92c-8-78-36-190-48-189
		c-4,0-47,57-95,125l-88,125l22,23c32,33,59,113,59,174c0,28,3,52,8,52C12032,7979,12070,7934,12114,7879z M6985,7748
		c-107-93-257-250-347-362c-326-405-586-980-664-1466c-9-58-20-108-24-113c-3-4-33,16-65,44c-83,73-148,113-238,149
		c-125,50-244,72-382,73c-139,0-238-18-369-69c-49-19-91-32-93-30c-9,9,22,52,154,209c560,670,1127,1149,1757,1482
		c115,61,304,143,331,144C7051,7809,7024,7782,6985,7748z M12376,7528l76-108l-21-43c-15-31-21-63-21-110c0-66-17-128-39-141
		c-6-4-50,53-105,136c-87,129-94,144-80,159c23,25,64,168,64,224l1,50l25-30C12289,7649,12334,7587,12376,7528z M12561,7254
		c27-43,56-97,65-121c15-39,15-45,0-84c-9-23-21-82-25-131c-13-144-23-143-115,2c-71,113-75,122-59,138c33,33,64,119,67,189
		c6,98,5,97,12,91C12509,7334,12534,7297,12561,7254z M10545,6635c156-25,285-73,393-147l44-30l-30-28c-42-38-62-82-70-153
		c-7-59-8-61-39-68c-17-3-47-15-67-27l-35-21l-17,27c-51,82-117,122-211,130c-60,4-63,6-73,37c-6,17-26,47-46,66c-32,31-40,34-99,34
		c-61,1-65,2-104,42c-70,73-162,79-223,16c-15-16-37-57-50-93c-23-64-33-74-98-100c-14-6-40-21-57-34c-18-13-60-29-94-35
		c-98-17-127-54-155-195l-17-86h-46c-62-1-120-29-163-79c-27-32-45-43-74-47c-60-9-94-24-152-67c-57-41-88-93-77-128
		c6-19,2-20-76-17l-83,3l-93,295c-131,415-145,462-135,472c14,14,262-19,353-48c122-38,231-98,309-170c73-67,116-94,149-94
		c23,0,45,31,112,160c63,122,191,249,309,308C10018,6652,10268,6678,10545,6635z M11579,6606c13-14,23-37,23-57c1-52,14-69,53-69
		c40,0,83-15,107-37c29-26,6-40-55-35c-65,5-97-9-97-43c0-33,13-38,96-42c64-2,76,1,118,27c61,39,86,44,129,26c34-14,38-13,62,5
		c15,12,25,31,25,45c0,63,54,87,86,39c20-31,74-65,103-65c19,0,21-6,21-50c0-39-4-52-17-56c-59-20-131-62-167-99
		c-67-69-113-132-126-171c-11-32-10-38,8-56c26-27,49-18,67,26c20,46,50,66,103,66h44l-22-27c-50-66-72-108-82-161
		c-6-31-19-68-28-82c-29-43-32-65-11-85c27-24,46-14,80,40c20,32,45,54,80,72c28,15,53,24,57,21c3-3-15-36-40-72s-51-84-57-106
		l-12-40h-267h-266l-12,33c-7,18-12,43-12,55c0,32-55,89-105,108c-39,14-45,21-45,46c0,16-7,42-14,57c-15,29-80,91-95,91
		c-5,0-11,29-13,65c-3,57-8,69-38,100c-68,70-154,81-232,30c-51-34-68-27-68,27c0,70,17,115,56,144c30,23,37,25,52,13
		c9-8,39-25,65-38c39-20,52-22,65-13c10,6,30,19,45,28c27,15,30,14,54-11c58-57,136-34,108,33c-4,9-8,30-9,46c-1,24-7,31-30,37
		c-34,9-114-4-157-26c-24-13-37-14-64-5c-47,15-50,24-24,66l22,37l98-7l98-7l44,40c51,48,78,60,133,60
		C11546,6630,11562,6624,11579,6606z M10128,6442c15-15,37-40,49-55c25-29,46-33,89-16c40,14,71,4,89-31c8-16,15-31,15-34
		s-33-3-72,0c-65,6-75,4-91-14c-32-35-9-58,64-66c35-3,70-13,79-21c23-21,63-19,77,4s68,32,119,21c53-12,114-80,137-152
		c14-44,23-58,46-68c17-7,45-35,65-66c36-54,52-62,86-44c14,8,24,3,49-22c17-18,31-37,31-44c0-14,69-74,85-74c17,0,29,18,43,65
		c9,32,9,43-4,62c-8,13-22,23-31,23c-13,0-14,3-5,12c21,21,15,67-12,79c-13,6-29,22-35,35c-14,32-66,32-114,0l-35-24l-37,38l-37,37
		l35,22c41,25,62,26,110,6c51-21,89-19,130,9c52,36,72,39,113,20c48-23,60-52,48-113c-6-27-8-53-6-60c2-6,26-21,52-32
		c62-27,82-56,78-117c-3-44-1-47,32-64c19-9,44-17,55-18c35-1,62-32,68-77l5-43h-1191c-656,0-1202,3-1214,6c-34,9-29,47,10,80
		c46,39,88,54,152,54h55l25,50c14,27,35,55,47,61c12,7,58,15,103,18l80,6l26,123c14,67,30,127,36,133s31,15,54,19c39,7,47,5,80-21
		c41-33,74-37,107-13c29,20,52,12,52-19c0-33,16-44,73-52c54-8,80,5,76,39c-2,12,2,30,9,42c9,16,8,25-4,42c-13,18-22,21-52,16
		c-28-4-49,0-81,17c-41,21-44,21-77,5c-19-9-40-16-47-16c-18,1,33,40,52,40c30,0,87,47,103,87c9,21,26,59,37,86c19,44,22,47,56,47
		C10092,6470,10109,6463,10128,6442z M12693,6436c12-9,17-27,17-59v-45l-52-7c-45-6-109-25-170-50c-12-5-18-3-18,6c0,14,35,39,93,68
		c15,8,27,18,27,22c0,14,61,79,74,79C12670,6450,12683,6443,12693,6436z M8510,6375c0-8,38-133,84-277c93-290,374-1206,443-1443
		c24-82,58-182,77-220c38-82,37-92-23-149c-29-28-42-35-45-25c-3,8-59,192-125,409s-138,454-160,525c-60,194-143,468-200,660
		c-28,94-77,250-110,347c-66,196-66,185,17,187C8499,6390,8510,6386,8510,6375z M8404,6080c47-146,96-303,109-350l24-85l-20-8
		c-12-4-462-6-1001-5c-802,2-1005,0-1110-11c-118-14-133-13-176,2c-26,9-77,17-114,17c-39,0-66,4-66,10c0,15,123,128,194,178
		c172,122,334,172,557,172c249,0,418-60,618-221c41-32,84-59,95-59c40,0,95,46,171,145c130,168,285,316,414,395
		c70,43,204,101,212,92C8315,6348,8357,6226,8404,6080z M12400,6223c0-5-18-29-40-54l-39-46l-48,8c-26,4-67,8-90,8c-24,1-43,5-43,11
		c0,12,70,48,125,66C12309,6230,12400,6234,12400,6223z M12266,6024c-4-15-2-32,5-40c14-17,51-18,66-3c6,6,16,10,22,8s-2-21-20-42
		c-30-36-32-37-83-31c-34,4-61,2-75-6c-13-6-25-10-27-8c-6,6,99,147,110,148C12268,6050,12269,6038,12266,6024z M5504,5961
		c93-26,188-67,249-110c63-43,207-180,207-197c0-12-72-14-453-14c-250,0-570,3-711,7l-257,6l112,113c95,95,119,114,152,120
		c22,3,69,18,106,33c56,24,122,43,216,65c11,3,83,3,160,2C5389,5983,5445,5977,5504,5961z M12611,5816c-26-28-61-115-61-154
		c0-15-4-31-8-37s-67-8-170-5l-162,5l20,40c11,22,31,54,45,70l25,30l-10-29c-13-36-5-63,20-71c26-8,39,1,54,35c8,20,33,40,81,66
		c81,43,178,84,184,78C12632,5842,12623,5829,12611,5816z M9988,5278c-48-112-108-203-190-287c-102-105-159-176-315-396
		c-66-93-153-210-193-260c-82-101-108-152-117-226c-6-48-10-54-90-127c-47-42-103-89-125-104c-75-51-91-28-32,44
		c20,23,68,90,107,148c38,58,91,128,118,155c26,28,55,67,64,88s23,41,31,44c9,3,183,229,387,501s373,490,375,484
		S10001,5308,9988,5278z M10179,5326c29-8,55-17,58-20c6-6-31-142-69-251c-74-208-250-515-428-745c-95-122-271-303-380-390
		c-179-142-366-247-600-335c-153-58-176-69-191-96c-8-16-17-19-37-14c-92,23-526,74-636,75c-41,0-50,14-32,48l16,31l118-6
		c77-4,122-10,133-19c20-18,43-18,58,0c8,9,47,15,124,19c68,3,166,17,249,36c139,30,206,54,257,91c19,13,45,20,73,20
		c60,0,122,39,243,149c79,72,106,91,130,91c53,1,108,35,185,116c229,240,523,740,507,863c-3,30,7,58,59,157c34,67,66,138,69,158
		C10093,5345,10099,5347,10179,5326z M11636,5304c-3-7-85-133-184-281c-98-147-214-326-257-398c-43-71-104-164-135-206
		c-58-76-90-129-90-149c0-6-37-54-81-107c-78-93-355-503-694-1030c-87-136-306-471-485-743s-350-532-379-577c-29-46-60-83-67-83
		c-8,0-14,2-14,5c0,9,122,203,297,470c93,143,266,409,383,590c263,404,649,984,800,1200c61,88,213,318,337,510
		c125,193,279,429,344,526c65,96,121,188,125,205c7,33,72,94,92,87C11635,5320,11639,5312,11636,5304z M10403,5273c16-4,18-12,12-56
		c-16-118-119-389-226-596c-127-245-280-458-476-661c-191-199-364-328-615-460c-73-39-140-80-149-91l-16-21l-119,27
		c-65,15-130,30-143,34c-19,6-1,15,95,50c491,177,858,475,1181,958c106,158,186,302,250,450c49,114,123,335,123,369
		C10320,5291,10343,5290,10403,5273z M10689,5243c11-9-24-167-61-283c-139-431-372-804-718-1150c-159-159-299-274-465-381
		c-66-42-137-92-157-109l-38-32l-69,21c-38,12-89,29-112,40l-44,18l75,38c449,226,822,587,1104,1067c131,223,272,578,291,731l7,56
		l92-6C10644,5250,10687,5246,10689,5243z M11450,5249c0-6-49-84-108-172c-60-89-210-319-334-512c-125-192-281-429-348-525
		s-251-368-408-605c-156-236-288-434-293-439c-4-5-42,8-86,31c-43,22-105,50-138,63s-63,26-67,29c-4,4,58,61,139,126
		c539,438,928,986,1226,1730c31,77,59,158,62,180c14,91,8,85,88,86c39,1,97,4,127,9C11396,5261,11450,5261,11450,5249z M11020,5212
		c0-45-26-120-106-308c-295-693-651-1182-1165-1598c-74-60-143-120-155-133l-21-24l-89,39c-125,55-144,64-144,71c0,3,33,25,73,49
		c434,257,880,737,1115,1200c130,255,242,577,242,695v37h125h125V5212z M9844,4883c-49-113-154-304-218-400
		c-129-193-286-370-345-388c-23-7-24-6-18,34c3,25,18,59,39,85c167,222,257,343,335,452c79,110,216,274,229,274
		C9868,4940,9858,4914,9844,4883z M11155,4079c20-394,61-835,111-1172c9-59,14-111,10-114c-10-10-71,13-68,25c1,7-5,54-12,105
		c-13,82-36,281-66,570c-20,196-40,484-40,577c0,76-4,104-20,135c-11,22-20,44-20,51c0,13,81,126,87,120
		C11139,4374,11147,4240,11155,4079z M11010,4032c0-169,62-838,106-1154c5-36,3-48-6-48c-17,0-284,70-460,120c-74,21-181,50-237,64
		c-110,28-153,44-153,57c0,5,75,125,167,266c370,572,551,831,573,818C11006,4151,11010,4096,11010,4032z M8547,3371
		c-4-19-72-113-342-474c-83-111-178-242-212-292c-34-49-89-120-122-158c-33-37-84-99-112-137c-29-39-59-70-66-70s-13,3-13,6
		c0,7,553,753,689,928c51,66,105,142,120,168c16,30,33,48,45,48C8547,3390,8551,3385,8547,3371z M8850,3321c91-22,195-51,231-65
		c36-13,95-32,130-41c94-24,109-37,109-89c0-24,9-73,20-108c12-34,38-120,59-189l38-127l-65-33c-74-38-93-60-76-86c16-25,49-27,81-6
		c47,32,81,43,168,52c99,12,115,19,177,79c34,33,51,43,59,35c7-7-43-93-177-299c-103-159-190-292-194-297c-3-4-94,30-201,77
		c-296,128-696,270-1033,368l-79,23l169,225c267,356,353,475,364,504c7,21,15,25,32,21C8675,3362,8759,3342,8850,3321z M9488,3097
		l72-29v-46c0-27,16-98,38-166l39-118l-33-14c-70-29-79-23-108,74c-15,48-42,136-61,195c-35,109-42,142-27,135
		C9412,3127,9448,3112,9488,3097z M9788,2974c61-29,112-58,112-64s-14-31-31-56c-26-39-32-43-51-33c-18,10-34,9-102-3
		c-15-2-23,12-47,87c-16,50-29,100-29,112C9640,3044,9637,3045,9788,2974z M10240,2980c11-6,93-30,182-54c90-24,233-63,318-86
		c85-24,328-87,540-140c359-91,385-99,388-120c4-22,2-23-60-16c-34,3-121,22-193,40c-301,78-1240,328-1243,331c-6,6,30,55,40,55
		C10217,2990,10230,2985,10240,2980z M8225,2491c369-106,1125-394,1125-429c0-4-6-16-13-26c-13-18-15-17-53,8
		c-134,88-776,319-1133,406c-62,16-117,32-122,37c-13,13,20,55,39,49C8078,2533,8148,2513,8225,2491z"/>
	<path d="M11480,6415c-10-12-9-30,4-88c18-82,38-117,65-117c26,0,44,26,38,52c-4,13-13,51-21,85c-7,34-17,66-20,72
		C11536,6435,11494,6432,11480,6415z"/>
	<path d="M11717,6169c-22-17-30-18-49-8s-25,8-45-15c-13-15-23-34-23-43c0-11-7-14-27-10c-37,7-63-9-63-38c0-30,26-45,77-45
		c22,0,44-5,50-11c22-22,62-3,79,39c1,1,33,4,72,5c40,2,77,9,86,16c30,25,13,71-26,71c-10,0-18,6-18,14c0,19-39,46-66,46
		C11752,6190,11731,6181,11717,6169z"/>
	<path d="M10172,6058c-7-7-12-22-12-35c0-20-3-21-26-13c-39,15-72,12-92-8c-14-14-25-16-42-10c-29,11-56,2-64-19
		c-7-18,55-118,79-127c14-5,85,19,95,33c3,3,15,11,27,18c17,10,24,9,33-2c17-20,34-19,55,4c9,11,33,21,54,23c29,2,37,7,39,26
		c4,27-23,62-47,62c-9,0-24,14-33,30C10220,6071,10193,6079,10172,6058z"/>
	<path d="M10691,5847c-6-8-21-13-31-10c-49,13-71-60-24-77c69-27,128,4,122,63c-2,26-8,33-29,35C10715,5860,10698,5854,10691,5847z"
		/>
	<path d="M10691,2385c-80-23-136-50-206-100c-159-113-237-269-239-475c-1-122,26-211,94-314c115-172,270-256,470-256
		c379,1,645,245,644,590c-1,241-168,459-412,539C10954,2397,10766,2406,10691,2385z M10872,2312c16-7,16-11-7-60c-13-29-30-71-36-92
		c-7-22-14-40-17-40c-2,0-16,8-30,19c-43,30-124,68-162,76c-69,15-69,22,1,55C10713,2313,10823,2331,10872,2312z M11070,2268l45-21
		l-40-15c-22-9-68-30-102-48l-63-32l16,36c9,21,23,54,32,75C10976,2306,10985,2307,11070,2268z M11238,2153c54-57,91-121,114-196
		c27-90,22-224-12-312l-23-60l-18,52c-50,149-169,303-295,384c-35,23-64,43-64,45c0,12,218,118,254,123
		C11199,2189,11219,2173,11238,2153z M10580,2139c30-6,68-18,83-26l28-14l-100-95c-104-99-161-178-201-279c-13-33-27-64-31-69
		c-13-16-29,68-29,154c0,135,35,238,111,324c38,43,42,45,62,31C10515,2157,10550,2146,10580,2139z M10796,2026c-3-6-21-48-41-93
		c-71-162-111-405-86-528c5-29,6-54,1-59c-12-12-106,35-159,80c-24,21-61,60-83,87l-39,50l20,21c11,12,35,58,54,103
		c36,86,56,118,120,195c54,66,183,169,203,161C10794,2040,10799,2032,10796,2026z M10946,1960c113-64,228-212,274-350
		c12-36,28-72,36-81c12-13,9-20-24-51c-91-88-229-144-383-155l-89-6v31c0,17-5,54-11,82c-13,62,2,223,32,331c24,88,88,229,103,229
		C10890,1990,10918,1977,10946,1960z"/>
</g>
</svg>
