<?xml version="1.0" encoding="utf-8"?>
<!-- Generator: Adobe Illustrator 23.0.1, SVG Export Plug-In . SVG Version: 6.00 Build 0)  -->
<svg version="1.1" id="Calque_1" xmlns="http://www.w3.org/2000/svg" xmlns:xlink="http://www.w3.org/1999/xlink" x="0px" y="0px"
	 viewBox="0 0 1280 899" style="enable-background:new 0 0 1280 899;" xml:space="preserve">
<g transform="translate(0.000000,899.000000) scale(0.100000,-0.100000)">
	<path d="M5874.3,5211.8c-4.8,0-73-23.1-81.9-27.7c-2.4-1.3-6.1-4.1-8.1-6.2c-2.1-2.2-7.5-5.9-12.1-8.3c-11-5.3-22.5-15.5-26.6-23.6
		c-6.4-12.7-3.7-36.3,6.7-56.7c23.1-45.7,92.1-98.9,203.3-156.4l28.8-15l-11-35c-5.9-19.3-11.9-38.9-13.4-43.3
		c-1.9-6.4-3.2-8.4-5.4-8.4c-1.8,0-4.1-1.9-5.3-4.3c-1.3-2.5-15.8-45.1-32.3-94.8c-16.6-49.9-30.7-90.5-31.4-90.5
		c-0.8,0-3.2,1.4-5.4,3.2c-3.7,2.9-6.5,3.2-24.5,3.2c-16.6,0-20.9-0.5-22.9-2.5s-2.1-3-0.5-4.9c1.8-2.2,1.3-2.4-3.5-1.3
		c-3,0.6-18.2,1.1-33.5,1.1c-23.3-0.2-30.9-0.8-46.2-4c-23.1-4.9-45.1-12.9-51.8-19c-3-2.5-8.6-5.7-12.6-7
		c-10.2-3.5-16.9-10.5-16.9-17.5c0-6.5,2.9-12.7,8.6-18c2.2-2.2,4.1-4.5,4.1-5.1s-6.2-5.6-14-10.8
		c-120.6-82.7-226.2-241.2-267.3-401.3c-27.6-107.2-23.6-208,10.8-276.5c12.3-24.4,27.9-44.3,46.5-59.3
		c86.5-69.6,223.3-33.6,348.2,91.8c53.4,53.5,95.7,112.5,132.4,184c8.4,16.7,19.6,40.1,24.7,52.1c8,19.1,9.4,21.7,11.9,20.2
		c6.1-3.2,15.5-1.8,21.2,3.3c7.3,6.5,8.9,11.6,17.8,55.8c4.1,20.5,8.4,38.6,9.6,39.8c1.1,1.4,2.1,6.1,2.1,10.4
		c-0.2,4.5,1.4,18,3.3,30.3c4.3,28.4,6.1,86.3,3.3,110.7c-7.2,62.6-29.6,111.7-70.9,155.6c-8.8,9.4-11.5,13.2-10.4,15
		c2.4,3.8,1.8,4.9-7.6,13.5l-8.9,8.3l3.7,13.1c2.1,7,4.3,13.2,4.9,13.7c0.6,0.3,73.1-76.1,160.9-170.1
		c87.9-94,170.5-182.2,183.5-195.9l23.6-25l-6.7-9.9c-8.8-12.9-17.8-32.7-22.5-48.4c-2.9-10.2-3.7-16.7-3.7-32.7
		c0-17.5,0.5-20.7,3.5-26.6c5.3-9.7,11-13.5,19.1-12.9c6.7,0.5,6.7,0.5,9.4-6.7c13.7-37.1,46.5-66.4,85.9-76.6
		c11.6-3,15.6-3.2,47-2.2l34.2,1.1l20.1-32.5c11.2-17.8,20.1-32.5,19.9-32.8c-0.3-0.2-4,0.8-8.3,2.1c-12.4,3.8-21.7,3.2-26.3-1.8
		c-5.4-5.7-6.4-24.5-1.6-32.2c5.1-8,10.7-10.4,44.8-19.4c35-9.2,41.1-9.6,47.3-2.5c4.5,5.1,6.2,16.4,3.7,23.9
		c-2.1,6.2-10.2,14.2-18,17.5c-4.1,1.8-9.9,9.6-29.6,39.8c-13.4,20.7-24.1,38.1-23.6,38.6c0.8,0.8,49.2,5.6,49.9,4.9
		c0.5-0.5,75.7-188.5,84.3-211.1c4.3-10.8,8.6-20.1,9.9-20.5c2.7-1.1,10.7,4.5,11.3,7.6c0.2,1.3-16.7,52.9-37.6,114.9l-37.9,112.6
		l4,0.8c2.4,0.5,8.1,1.3,12.9,1.8l8.9,1.1l3.7-9.4c6.5-15.8,22-45.2,32.7-62.3c64-101,166.9-169.8,282.9-188.9
		c130.5-21.5,263.3,21.5,357.6,116c65.3,65.3,106.3,148.1,120.6,243.9c1.3,9.6,2.1,29.2,1.9,58.1c0,37.8-0.5,46.7-3.5,64.4
		c-1.9,11.3-4,22.5-4.6,24.5c-1,3.8-0.6,4,4.8,3c7-1.1,9.9,1.1,12.1,9.2c4.1,15.3-0.2,43-10.5,68.5
		c-58.9,145.3-186.7,249-338.4,274.8c-95.3,16.1-192.3,0.5-278.5-44.8c-15.5-8.1-24.2-13.4-48.7-29.5c-3.3-2.2-5.3,0-61.2,72.5
		c-31.5,41.1-57.5,75.5-57.5,76.3c0,1,10.7,38.7,23.9,84c13.1,45.2,23.9,82.5,23.9,83c0,0.3,3,0.6,6.5,0.6c3.7,0,16.1,2.1,27.6,4.6
		c11.5,2.5,30.6,5.6,42.4,6.5c53,4.5,77.1,14.7,87.9,37.4c5.3,11.3,5.6,19.6,1.1,29.5c-4.1,9.2-10,15.3-19.4,20.1
		c-19.3,9.9-42.9,11.5-87.1,5.7c-54-7-98.9-10.5-170.5-13.1c-25.8-1-50.7-2.4-55-3.5c-22-4.8-31.1-19.3-19.9-32
		c9.7-11.2,37.9-19.3,83.6-24.1c23.6-2.5,26.9-3.3,49.1-13.1c10.8-4.6,13.7-6.5,13.1-8.4c-0.6-1.4-9.2-31.1-19.1-66.1
		c-10-34.9-18.5-63.7-18.6-63.9c-0.3-0.2-132.7,2.4-294.4,5.7c-161.7,3.3-298,6.1-303.3,6.2c-8.8,0-9.2,0.2-8.3,3.7
		c6.1,22.1,6.8,26.1,5.7,30.1c-1.1,3.3,1.8,13.7,12.1,46c12.9,39.3,13.9,41.6,17,40.6c17.2-4.6,39.5-2.2,64.4,7
		c15,5.6,24.1,7.5,71.4,15c31.5,5.1,55.1,8.1,56.6,7.3c2.5-1.3,105.8,2.4,113.6,4.1c7.8,1.6,15.1,9.6,18,19.3
		c2.4,8.1,2.4,9.2-0.2,15.8c-4.3,11.3-8.3,13.4-25.3,13.4c-8-0.2-31.7-1.4-52.7-3c-38.4-2.9-44.9-4.1-50-10.2
		c-1-1.4-5.6-2.9-10.2-3.5s-22-4-38.6-7.3c-16.7-3.5-41.1-8.4-54.5-11.2c-13.2-2.5-28-6.4-32.8-8.6c-19.6-8.6-47.8-11.9-52.4-6.2
		c-11.9,15.1-23.3,21-31.5,16.2c-4.3-2.4-4.9-2.2-34.4,12.1c-108.2,52.9-169,102-189.7,153.1c-2.9,7-5.3,13.5-5.3,14.7
		c0,3.2,8.1,11.6,14.3,14.8c5.9,3,6.1,3,8.8,0c1.6-1.8,4.5-3.2,6.2-3.2c1.9,0,22.6,5.7,46.4,12.6c38.4,11.3,43.3,13.1,47.3,17.5
		c4.9,5.4,5.4,9.4,2.5,20.4c-1.1,4.9-3.8,9.4-8.1,13.5C5881,5210.2,5878,5211.8,5874.3,5211.8z M5973.1,4741.1l22.9,0.2
		c35.8,0.3,582.7-12.7,583.8-14c0.6-0.5-25.8-94.5-58.5-208.7l-59.6-207.6l-23.7-1c-24.7-1-42.9-4.3-59.6-10.8
		c-4.6-1.9-8.9-3-9.7-2.5c-1.6,1-10.7,16.6-11.5,19.6c-0.3,1.4,1.8,2.2,6.9,2.5c15,1.1,22.1,8.9,22.8,24.9
		c0.2,9.2-3.5,15.1-12.3,19.1c-9.2,4.1-63.4,13.4-70.7,11.9c-8.3-1.4-14-8.1-16.2-18.2c-3.3-15.9,2.1-25.5,16.6-29
		c11.5-2.7,19.3-6.1,22.8-10c3.5-4,19.4-31.7,19.4-33.8c-0.2-2.4-14.5-12.3-15.8-10.8c-0.8,0.8-84.9,91.9-187,202.5
		s-186.5,202.3-187.5,203.9c-1.3,2.2,0.5,9.4,7.6,32.3L5973.1,4741.1z M6609.2,4672.9c0.6,1.1,21.2-24.7,49.7-62l48.6-63.9
		l-21.7-21.7c-12.1-11.9-27.9-29.2-35-38.4c-36.6-46-64-98.8-80.8-155.2l-6.1-20.1H6534c-27.9,0-29.9,0.2-29.2,2.9
		c0.5,1.4,23.9,82.4,52.1,179.5C6585.1,4591.5,6608.6,4671.8,6609.2,4672.9z M7200.4,4472.2c24.4-19.1,55.4-52.6,73.1-78.7l6.5-9.9
		l-3.5-2.2c-2.1-1.3-51-29-108.8-61.6c-57.8-32.7-112.6-63.6-121.7-68.8c-9.1-5.1-16.1-8.3-15.6-7s1.4,4.8,1.9,7.8
		c2.4,12.6-14.2,22-54.2,30.9l-20.5,4.6l-75.3,97.8l-75.3,98l3.5,2.7c7.3,5.6,28.7,17.5,44.6,25.2c33.1,15.8,71.8,26.4,109.4,30.3
		C7047.1,4549.5,7133.8,4524.1,7200.4,4472.2z M5785.1,4514.4c2.9-0.5,0.6-7.5-30.3-90c-39-103.9-44-114.1-77.7-159
		c-11.3-15.1-13.4-17-18.6-18c-8.3-1.3-18-10.2-22.5-20.2c-8.8-20.4-0.8-42.7,15.5-43.3c3.3-0.2,7.5,0.3,9.4,1
		c4.6,1.6,40.5-23.3,40.5-28.2c0.2-6.2,6.1-16.6,11-19.1c10.8-5.7,21.8-1.6,31.9,12.1l5.4,7.2l74.9,30.6
		c41.1,16.9,75.2,30.3,75.7,29.8c1.4-1.6-13.9-45.4-25-71.2c-58.1-134.4-164.9-242.8-264.9-268.9c-46-11.9-86.5-5.4-120.1,19.4
		c-8.6,6.2-10.7,9.1-17.8,22.9c-13.4,26.1-20.7,52.1-24.2,86.3c-8.9,89.4,22.5,205.8,82.7,305.9c51.3,84.9,121.4,154.7,190.7,189.2
		c16.1,8.1,21.3,9.9,32.7,11.5C5770.5,4514.4,5780.8,4515.2,5785.1,4514.4z M5824.2,4507.3c4,0.6,29-13.5,37.8-21.3l8.3-7.6
		l-27.6-81.2c-15.3-44.6-30.4-86.7-33.8-93.2c-4.6-9.1-18.3-33.1-20.7-36.3c-0.5-0.6-100-29-100.5-28.5c-0.2,0.2,14.2,21,31.7,46.5
		l32.2,46.2l35.2,87.6C5808.1,4472.5,5822.7,4507.1,5824.2,4507.3z M6774.9,4456.8c1.1,0,124.4-159.8,124.4-161.4
		c0-0.2-12.4,0.8-27.6,2.4c-39.2,3.8-91.9,7.3-146.1,9.4c-25.8,1.1-47.3,2.2-47.5,2.4c-0.3,0.2,3.2,9.9,7.8,21.5
		c16.7,41.9,47.2,87.5,77.6,116.6C6768.8,4452.6,6773.9,4456.8,6774.9,4456.8z M5894.1,4442.9c3,3.3,16.6-38.9,21-65.8
		c2.1-12.7,2.9-70.6,1-72.5c-1.3-1.3-86.8-26.1-90.2-26.3c-1,0,1.3,4.9,5.3,10.8c5.6,8.3,13.7,27.7,34.4,81.7
		C5880.6,4409.8,5893.3,4442.3,5894.1,4442.9z M7289.9,4360.4c3.2,1.3,6.9-5.6,17.7-32.7c15.5-38.6,23.4-81.6,23.4-125.8
		c0-54.3-11-102.7-34.2-150.5c-17.8-36.8-38.9-65.8-69.5-95.7c-43-41.7-92.7-69.8-149.4-84.3c-136.7-34.6-280.7,21.2-359.2,139.4
		c-10,15.1-26.4,44.3-26.4,47.2c0,0.8,11.9,3.8,26.6,6.9c149.6,29.3,277.3,75.3,310.2,111.7c9.9,11,14.7,31.1,9.9,41.6
		c-0.8,1.9,23.4,16.1,123.6,72C7231.1,4328.2,7288.5,4359.9,7289.9,4360.4z M5912.3,4284.1c2.4,0.8,2.7,0.3,2.1-3.7
		c-0.5-2.4-2.1-11.3-3.5-19.8c-1.4-8.4-3.2-15.9-3.7-16.7c-1.3-1.9-139.1-53.7-140-52.6c-0.3,0.3,8.4,14.3,19.6,31.1
		c16.6,24.9,21,30.6,25.2,31.9c2.7,1,25.6,7.8,51.1,15.3C5888.4,4277.1,5910.5,4283.6,5912.3,4284.1z M5767.5,4241.2
		c3.7,1.1,1.6-1.9-18.8-26.9c-11.6-14.3-13.1-15.6-18.2-15.6c-3,0-6.9-0.8-8.6-1.8c-2.5-1.3-6.1,0.2-20.5,8.4
		c-9.6,5.6-16.9,10.5-16.2,11s18.6,6.1,40.1,12.4C5746.7,4235,5765.7,4240.7,5767.5,4241.2z M6543.1,4234.7l7.3,1.1v-19.8
		c0-15.9,0.6-21,3-26.4c4.1-8.9,10.5-12.3,21.5-10.8c5.6,0.8,7.6,0.6,6.5-0.5c-1-1-9.2-2.2-18.5-2.9l-16.9-1.1l-2.7,10.8
		c-3,12.3-11.5,29.9-19.6,41.1l-5.6,7.5h8.8C6531.8,4233.7,6538.9,4234.2,6543.1,4234.7z M6662.2,4232.1l19.3-0.3
		c10.7,0,41.3-1.1,68-2.2c26.8-1,82.2-2.4,123.1-3.2l74.6-1.1l4.8-4.5c3.8-3.5,4.6-5.4,3.8-8.1c-0.6-2.1-1.6-4.1-2.2-4.6
		c-0.8-0.8-109.1-9.9-287.7-24.2l-4.8-0.3l-0.5,11.2c-0.3,6.2,0,17,0.5,24.4L6662.2,4232.1z M6437.3,4226.1c0-2.4-6.9-25.2-8-26.3
		c-0.6-0.6-4.1,3.8-8,10c-3.7,6.2-6.5,11.6-6.1,11.9C6416.4,4223.1,6437.3,4227,6437.3,4226.1z M6478.7,4224c1.8,3.2,14-8.6,22-21
		c6.5-10,14.3-29.2,12.6-30.7c-1.1-1.1-49.4-5.3-50.3-4.5c-0.3,0.3,2.7,12.6,7,27.2C6474.1,4209.8,6478.1,4222.7,6478.7,4224z
		 M6389.8,4211.6c0.5,1.4,1.8,0.5,3.7-2.5c1.6-2.7,3.7-5.9,4.6-7.2c0.8-1.3-0.8-0.2-3.7,2.5
		C6391.4,4207.3,6389.5,4210.5,6389.8,4211.6z M6365.8,4187.5c0.5,0,5.7-5.3,11.5-11.8c10.5-11.6,10.5-11.6,8.9-17.7
		c-2.7-9.4-1.1-38.7,2.2-45.6c3.8-7.6,11.5-15.3,19.3-19.3c6.5-3.3,20.5-4.6,28-2.5c3.7,1.1,4.6,0.2,11.6-10.8l7.5-11.9l-4.5-1.8
		c-6.5-2.5-34.9-3.5-45.1-1.4c-16.2,3.3-30.9,11.8-44.4,25.3c-13.7,13.9-20.7,26.1-24.7,44l-2.5,11l5.1,7.3
		c2.9,4,9.9,13.5,15.6,21.3C6359.9,4181.3,6365.1,4187.5,6365.8,4187.5z M6960.6,4176.9c3,0.5,16.6-6.5,16.7-8.8
		c0.2-4.1-87.8-35.2-139.4-49.2c-42.9-11.6-145.9-34.9-154.5-34.9c-2.9,0-10.7,24.2-15.8,49.1c-3.5,17-3.5,18.8-1.1,19.8
		c1.4,0.5,67.4,6.1,146.7,12.3C6892.6,4171.3,6958.9,4176.7,6960.6,4176.9z M6567.9,4145.3l16.9,1.1l1.9-13.7
		c1.8-11.6,11.5-54,14-60.7c0.6-1.4-2.7-2.5-11.5-3.8c-6.7-1-12.6-1.6-12.9-1.3c-0.8,1-26,76.5-25.5,76.9
		C6551.1,4144,6558.7,4144.7,6567.9,4145.3z M6509,4140.7c2.2,0.5,4.6,0.3,5.1-0.2c1.4-1.4-3.3-18-7.8-26.9
		c-5.7-11.5-15.8-24.2-24.2-30.6l-7.2-5.6l-8.9,13.9l-8.9,13.9l3.7,7.2c2.4,4.8,3.7,10,3.7,15.6c0,9.9-0.8,9.4,24.7,11
		C6497.8,4139.4,6506.8,4140.2,6509,4140.7z M6526.4,4084.6c6.2,8.9,6.5,9.2,8,5.6c0.8-2.1,3.2-8.4,5.6-14
		c2.2-5.7,4.1-11.2,4.1-12.1c0-1.8-24.9-5.6-36.3-5.6c-4,0-4,0.3,4,8.4C6516.2,4071.4,6522.7,4079.4,6526.4,4084.6z"/>
</g>
</svg>
